<?xml version="1.0" standalone="no"?>
<!DOCTYPE svg PUBLIC "-//W3C//DTD SVG 1.1//EN" "http://www.w3.org/Graphics/SVG/1.1/DTD/svg11.dtd">
<svg xmlns="http://www.w3.org/2000/svg" xmlns:xlink="http://www.w3.org/1999/xlink" xmlns:svgjs="http://svgjs.dev/svgjs" version="1.1" width="2000" height="1500" viewBox="0 0 2000 1500"><rect width="2000" height="1500" fill="#ffffff"/><g transform="matrix(0.75,0,0,0.75,249.9268098314035,193.8293005428768)"><svg xmlns="http://www.w3.org/2000/svg" xmlns:xlink="http://www.w3.org/1999/xlink" viewBox="0 0 340 249" data-background-color="#ffffff" preserveAspectRatio="xMidYMid meet" height="1464" width="2000"><g id="tight-bounds" transform="matrix(1,0,0,1,0.01658977154855279,1.7513384083971744)"><svg viewBox="0 0 339.9668204569029 247.2" height="247.2" width="339.9668204569029"><g><svg viewBox="0 0 395.52000000000004 287.59437132305237" height="247.2" width="339.9668204569029"><g transform="matrix(1,0,0,1,0,174.58349222579037)"><svg viewBox="0 0 395.52000000000004 113.01087909726202" height="113.01087909726202" width="395.52000000000004"><g id="textblocktransform"><svg viewBox="0 0 395.52000000000004 113.01087909726202" height="113.01087909726202" width="395.52000000000004" id="textblock"><g><svg viewBox="0 0 395.52000000000004 77.95141104294477" height="77.95141104294477" width="395.52000000000004"><g transform="matrix(1,0,0,1,0,0)"><svg width="395.52000000000004" viewBox="4.4 -37.9 195.57999999999998 38.55" height="77.95141104294477" data-palette-color="#4d7e3e"><path d="M8.6-30.25L8.6-3.85 15.35-3.85Q18.1-3.85 20.53-4.55 22.95-5.25 24.78-6.83 26.6-8.4 27.65-10.95 28.7-13.5 28.7-17.15L28.7-17.15Q28.7-20.55 27.75-23.03 26.8-25.5 25.08-27.1 23.35-28.7 20.88-29.48 18.4-30.25 15.35-30.25L15.35-30.25 8.6-30.25ZM4.4 0L4.4-34.1 15.35-34.1Q19.4-34.1 22.68-33.1 25.95-32.1 28.3-30 30.65-27.9 31.93-24.7 33.2-21.5 33.2-17.15L33.2-17.15Q33.2-12.75 31.8-9.53 30.4-6.3 28-4.17 25.6-2.05 22.35-1.03 19.1 0 15.35 0L15.35 0 4.4 0ZM39.35 0L39.35-25.2 43.35-25.65 43.35 0 39.35 0ZM38.7-32.35L38.7-32.35Q38.7-33.5 39.47-34.27 40.25-35.05 41.4-35.05L41.4-35.05Q42.6-35.05 43.42-34.27 44.25-33.5 44.25-32.35L44.25-32.35Q44.25-31.2 43.42-30.43 42.6-29.65 41.4-29.65L41.4-29.65Q40.25-29.65 39.47-30.43 38.7-31.2 38.7-32.35ZM64.85-24.6L64.15-21.05Q62.05-21.7 60.42-21.93 58.8-22.15 57.45-22.15L57.45-22.15Q55.7-22.15 54.52-21.3 53.35-20.45 53.35-19.1L53.35-19.1Q53.4-17.9 54.4-17.05 55.4-16.2 56.72-15.53 58.05-14.85 59.67-14.05 61.3-13.25 62.72-12.25 64.15-11.25 65.05-9.85 65.95-8.45 66-6.5L66-6.5Q65.95-4.4 65.07-3.03 64.2-1.65 62.82-0.83 61.45 0 59.85 0.33 58.25 0.65 56.85 0.65L56.85 0.65Q55.05 0.65 53.12 0.45 51.2 0.25 49-0.4L49-0.4 49.75-4Q52-3.4 53.85-3.13 55.7-2.85 56.9-2.85L56.9-2.85Q57.8-2.85 58.67-3.05 59.55-3.25 60.25-3.63 60.95-4 61.37-4.6 61.8-5.2 61.8-5.95L61.8-5.95Q61.75-7.35 60.85-8.33 59.95-9.3 58.52-10.08 57.1-10.85 55.47-11.63 53.85-12.4 52.42-13.43 51-14.45 50.05-15.88 49.1-17.3 49.1-19.4L49.1-19.4Q49.1-20.9 49.87-22.08 50.65-23.25 51.87-24.03 53.1-24.8 54.57-25.23 56.05-25.65 57.45-25.65L57.45-25.65Q58.9-25.65 60.7-25.43 62.5-25.2 64.85-24.6L64.85-24.6ZM71.39 0L71.39-37.45 75.39-37.9 75.39-22Q76.89-23 78.37-23.75 79.84-24.5 81.39-25.08 82.94-25.65 84.39-25.65L84.39-25.65Q86.44-25.65 87.82-25.18 89.19-24.7 90.04-23.6 90.89-22.5 91.27-20.7 91.64-18.9 91.64-16.2L91.64-16.2 91.64 0 87.64 0 87.64-15.75Q87.64-17.25 87.59-18.43 87.54-19.6 87.17-20.43 86.79-21.25 86.02-21.7 85.24-22.15 83.84-22.15L83.84-22.15Q82.54-22.15 81.04-21.58 79.54-21 78.19-20.25 76.84-19.5 75.39-18.5L75.39-18.5 75.39 0 71.39 0ZM103.44-30.25L103.44-3.85 110.19-3.85Q112.94-3.85 115.37-4.55 117.79-5.25 119.62-6.83 121.44-8.4 122.49-10.95 123.54-13.5 123.54-17.15L123.54-17.15Q123.54-20.55 122.59-23.03 121.64-25.5 119.92-27.1 118.19-28.7 115.72-29.48 113.24-30.25 110.19-30.25L110.19-30.25 103.44-30.25ZM99.24 0L99.24-34.1 110.19-34.1Q114.24-34.1 117.52-33.1 120.79-32.1 123.14-30 125.49-27.9 126.77-24.7 128.04-21.5 128.04-17.15L128.04-17.15Q128.04-12.75 126.64-9.53 125.24-6.3 122.84-4.17 120.44-2.05 117.19-1.03 113.94 0 110.19 0L110.19 0 99.24 0ZM147.84-5.85L147.84-11.55Q146.84-11.5 145.94-11.45 145.04-11.4 144.16-11.33 143.29-11.25 142.59-11.15L142.59-11.15Q138.99-10.7 137.49-9.58 135.99-8.45 135.99-6.35L135.99-6.35Q135.99-4.6 137.06-3.73 138.14-2.85 139.89-2.85L139.89-2.85Q142.29-2.85 144.16-3.68 146.04-4.5 147.84-5.85L147.84-5.85ZM148.29 0.4L147.79-2.35Q145.44-1 143.41-0.18 141.39 0.65 139.04 0.65L139.04 0.65Q135.69 0.65 133.71-0.98 131.74-2.6 131.74-6.35L131.74-6.35Q131.74-8.3 132.74-9.75 133.74-11.2 135.36-12.18 136.99-13.15 139.04-13.7 141.09-14.25 143.24-14.4L143.24-14.4Q144.14-14.5 145.59-14.58 147.04-14.65 147.84-14.7L147.84-14.7Q147.84-16.45 147.74-17.82 147.64-19.2 147.14-20.18 146.64-21.15 145.66-21.65 144.69-22.15 142.89-22.15L142.89-22.15Q141.44-22.15 140.09-21.98 138.74-21.8 137.69-21.6L137.69-21.6Q136.44-21.35 135.39-21.05L135.39-21.05 134.59-24.5Q135.84-24.8 137.29-25.05L137.29-25.05Q138.54-25.3 140.19-25.48 141.84-25.65 143.74-25.65L143.74-25.65Q146.29-25.65 147.86-24.9 149.44-24.15 150.31-22.88 151.19-21.6 151.51-19.98 151.84-18.35 151.84-16.55L151.84-16.55 151.84-4.55Q151.84-3.85 151.86-3.08 151.89-2.3 151.96-1.55 152.04-0.8 152.14 0L152.14 0 148.29 0.4ZM173.19-24.6L172.49-21.05Q170.39-21.7 168.76-21.93 167.14-22.15 165.79-22.15L165.79-22.15Q164.04-22.15 162.86-21.3 161.69-20.45 161.69-19.1L161.69-19.1Q161.74-17.9 162.74-17.05 163.74-16.2 165.06-15.53 166.39-14.85 168.01-14.05 169.64-13.25 171.06-12.25 172.49-11.25 173.39-9.85 174.29-8.45 174.34-6.5L174.34-6.5Q174.29-4.4 173.41-3.03 172.54-1.65 171.16-0.83 169.79 0 168.19 0.33 166.59 0.65 165.19 0.65L165.19 0.65Q163.39 0.65 161.46 0.45 159.54 0.25 157.34-0.4L157.34-0.4 158.09-4Q160.34-3.4 162.19-3.13 164.04-2.85 165.24-2.85L165.24-2.85Q166.14-2.85 167.01-3.05 167.89-3.25 168.59-3.63 169.29-4 169.71-4.6 170.14-5.2 170.14-5.95L170.14-5.95Q170.09-7.35 169.19-8.33 168.29-9.3 166.86-10.08 165.44-10.85 163.81-11.63 162.19-12.4 160.76-13.43 159.34-14.45 158.39-15.88 157.44-17.3 157.44-19.4L157.44-19.4Q157.44-20.9 158.21-22.08 158.99-23.25 160.21-24.03 161.44-24.8 162.91-25.23 164.39-25.65 165.79-25.65L165.79-25.65Q167.24-25.65 169.04-25.43 170.84-25.2 173.19-24.6L173.19-24.6ZM179.73 0L179.73-37.45 183.73-37.9 183.73-22Q185.23-23 186.71-23.75 188.18-24.5 189.73-25.08 191.28-25.65 192.73-25.65L192.73-25.65Q194.78-25.65 196.16-25.18 197.53-24.7 198.38-23.6 199.23-22.5 199.61-20.7 199.98-18.9 199.98-16.2L199.98-16.2 199.98 0 195.98 0 195.98-15.75Q195.98-17.25 195.93-18.43 195.88-19.6 195.51-20.43 195.13-21.25 194.36-21.7 193.58-22.15 192.18-22.15L192.18-22.15Q190.88-22.15 189.38-21.58 187.88-21 186.53-20.25 185.18-19.5 183.73-18.5L183.73-18.5 183.73 0 179.73 0Z" opacity="1" transform="matrix(1,0,0,1,0,0)" fill="#4d7e3e" class="wordmark-text-0" data-fill-palette-color="primary" id="text-0"/></svg></g></svg></g><g transform="matrix(1,0,0,1,0,96.353868356319)"><svg viewBox="0 0 395.52000000000004 16.657010740943022" height="16.657010740943022" width="395.52000000000004"><g transform="matrix(1,0,0,1,0,0)"><svg width="395.52000000000004" viewBox="2.1499999999999995 -34 823.85 34.7" height="16.657010740943022" data-palette-color="#4d7e3e"><path d="M10.2 0.65L10.2 0.65Q8.35 0.65 6.8 0.3 5.25-0.05 4.25-1L4.25-1Q3.5-1.7 3.25-2.58 3-3.45 3-4.5L3-4.5Q3-6.2 3.3-7.9L3.3-7.9Q3.75-10.85 4.1-14.25 4.45-17.65 4.45-20.55L4.45-20.55Q4.45-21.45 4.38-22.6 4.3-23.75 4.15-24.75L4.15-24.75Q3.8-24.6 3.48-24.48 3.15-24.35 2.9-24.35L2.9-24.35Q2.45-24.35 2.3-24.8 2.15-25.25 2.15-25.8L2.15-25.8Q2.15-27.25 2.83-28.28 3.5-29.3 5.05-30.1L5.05-30.1Q6.7-31 9.38-31.68 12.05-32.35 14.8-32.35L14.8-32.35Q21.05-32.35 24.63-28.68 28.2-25 28.2-18.25L28.2-18.25Q28.2-14.4 27.03-10.98 25.85-7.55 23.55-4.93 21.25-2.3 17.9-0.83 14.55 0.65 10.2 0.65ZM11.8-4.95L11.8-4.95Q14.05-4.95 16.3-5.65 18.55-6.35 20.38-7.75 22.2-9.15 23.3-11.33 24.4-13.5 24.4-16.55L24.4-16.55Q24.4-20 23.05-22.25 21.7-24.5 19.45-25.6 17.2-26.7 14.45-26.7L14.45-26.7Q12.95-26.7 11.48-26.45 10-26.2 9.15-25.95L9.15-25.95Q9.1-23.65 8.88-21.48 8.65-19.3 8.35-17.25L8.35-17.25Q8.05-15.1 7.88-13.05 7.7-11 7.7-9L7.7-9Q7.7-6.5 8.72-5.73 9.75-4.95 11.8-4.95ZM36.05-24.85L36.05-24.85Q34.65-24.9 33.8-25.7 32.95-26.5 32.95-27.95L32.95-27.95Q33-29.5 34-30.48 35-31.45 36.55-31.4L36.55-31.4Q38-31.35 38.82-30.55 39.65-29.75 39.6-28.3L39.6-28.3Q39.55-26.8 38.6-25.83 37.65-24.85 36.05-24.85ZM36.1 0.5L36.1 0.5Q34.6 0.5 33.75-0.33 32.9-1.15 32.9-3.15L32.9-3.15Q32.9-4.3 33.12-5.4 33.35-6.5 33.65-7.55L33.65-7.55Q34-8.65 34.22-9.8 34.45-10.95 34.45-12.25L34.45-12.25Q34.45-13.15 34.2-13.98 33.95-14.8 33.1-15.2L33.1-15.2Q32.45-15.55 31.97-15.93 31.5-16.3 31.5-16.9L31.5-16.9Q31.5-17.6 32.15-18.4 32.8-19.2 33.87-19.78 34.95-20.35 36.1-20.35L36.1-20.35Q37.35-20.35 37.92-19.7 38.5-19.05 38.7-18.05 38.9-17.05 38.9-16L38.9-16Q38.9-14.4 38.65-12.88 38.4-11.35 38.15-10.05L38.15-10.05Q37.95-9.1 37.85-8.3 37.75-7.5 37.75-6.8L37.75-6.8Q37.75-5.55 38.35-4.93 38.95-4.3 40.05-3.75L40.05-3.75Q40.5-3.5 40.5-3L40.5-3Q40.5-2.6 40.1-1.75 39.7-0.9 38.72-0.2 37.75 0.5 36.1 0.5ZM50.85 0.65L50.85 0.65Q49 0.65 47.4 0.1 45.8-0.45 44.8-1.45 43.8-2.45 43.8-3.85L43.8-3.85Q43.8-4.6 44.17-5.28 44.55-5.95 45.4-5.95L45.4-5.95Q45.85-5.95 46.35-5.7L46.35-5.7Q47.25-5.2 48.65-4.78 50.05-4.35 51.6-4.35L51.6-4.35Q53.35-4.35 54.7-4.85 56.05-5.35 56.05-6.25L56.05-6.25Q56.05-6.95 55.02-7.25 54-7.55 51.6-7.9L51.6-7.9Q49.95-8.2 48.4-8.6 46.85-9 45.85-9.98 44.85-10.95 44.85-12.85L44.85-12.85Q44.85-14.7 45.87-16.43 46.9-18.15 48.95-19.3 51-20.45 53.95-20.45L53.95-20.45Q55.5-20.45 56.95-20.1 58.4-19.75 59.35-19.05 60.3-18.35 60.3-17.3L60.3-17.3Q60.3-16.4 59.67-15.65 59.05-14.9 58.22-14.43 57.4-13.95 56.85-13.95L56.85-13.95Q56.45-13.95 55.9-14.5L55.9-14.5Q55.05-15.2 54.02-15.48 53-15.75 52-15.75L52-15.75Q50.5-15.75 49.57-15.3 48.65-14.85 48.65-14.15L48.65-14.15Q48.65-13.5 49.42-13.1 50.2-12.7 51.35-12.53 52.5-12.35 53.55-12.2L53.55-12.2Q56.45-11.8 58.15-10.83 59.85-9.85 59.85-7.4L59.85-7.4Q59.85-5.5 58.77-3.63 57.7-1.75 55.67-0.55 53.65 0.65 50.85 0.65ZM66.19 0.55L66.19 0.55Q65.49 0.55 64.99 0.23 64.49-0.1 64.59-0.65L64.59-0.65Q65.34-4.65 65.87-8.78 66.39-12.9 66.39-17.1L66.39-17.1Q66.39-20.8 66.14-23.8 65.89-26.8 64.54-29.55L64.54-29.55Q64.29-30.1 64.14-30.5 63.99-30.9 63.99-31.25L63.99-31.25Q63.99-32.2 65.12-33.1 66.24-34 67.49-34L67.49-34Q69.24-34 69.89-31.8 70.54-29.6 70.54-25.3L70.54-25.3Q70.54-20.15 69.94-16.32 69.34-12.5 68.89-10.5L68.89-10.5 69.09-10.4Q70.09-13.05 71.52-15.35 72.94-17.65 74.84-19.05 76.74-20.45 79.24-20.45L79.24-20.45Q81.89-20.45 83.27-18.85 84.64-17.25 84.64-14.9L84.64-14.9Q84.64-13.9 84.44-12.98 84.24-12.05 83.99-11.2L83.99-11.2Q83.74-10.4 83.54-9.58 83.34-8.75 83.34-7.9L83.34-7.9Q83.34-6.35 84.09-5.38 84.84-4.4 86.09-4L86.09-4Q86.44-3.9 86.62-3.73 86.79-3.55 86.79-3.1L86.79-3.1Q86.79-2.65 86.49-1.8 86.19-0.95 85.39-0.23 84.59 0.5 83.04 0.5L83.04 0.5Q81.04 0.5 79.94-0.93 78.84-2.35 78.84-4.6L78.84-4.6Q78.84-5.7 79.07-6.85 79.29-8 79.59-9.05L79.59-9.05Q79.84-10.1 80.04-11.03 80.24-11.95 80.24-12.6L80.24-12.6Q80.24-14.9 77.84-14.9L77.84-14.9Q75.84-14.9 74.32-13.48 72.79-12.05 71.72-9.88 70.64-7.7 69.94-5.4L69.94-5.4 69.94-3.7Q69.94-1.85 68.87-0.65 67.79 0.55 66.19 0.55ZM112.79 0.65L112.79 0.65Q110.94 0.65 109.39 0.3 107.84-0.05 106.84-1L106.84-1Q106.09-1.7 105.84-2.58 105.59-3.45 105.59-4.5L105.59-4.5Q105.59-6.2 105.89-7.9L105.89-7.9Q106.34-10.85 106.69-14.25 107.04-17.65 107.04-20.55L107.04-20.55Q107.04-21.45 106.96-22.6 106.89-23.75 106.74-24.75L106.74-24.75Q106.39-24.6 106.06-24.48 105.74-24.35 105.49-24.35L105.49-24.35Q105.04-24.35 104.89-24.8 104.74-25.25 104.74-25.8L104.74-25.8Q104.74-27.25 105.41-28.28 106.09-29.3 107.64-30.1L107.64-30.1Q109.29-31 111.96-31.68 114.64-32.35 117.39-32.35L117.39-32.35Q123.64-32.35 127.21-28.68 130.79-25 130.79-18.25L130.79-18.25Q130.79-14.4 129.61-10.98 128.44-7.55 126.14-4.93 123.84-2.3 120.49-0.83 117.14 0.65 112.79 0.65ZM114.39-4.95L114.39-4.95Q116.64-4.95 118.89-5.65 121.14-6.35 122.96-7.75 124.79-9.15 125.89-11.33 126.99-13.5 126.99-16.55L126.99-16.55Q126.99-20 125.64-22.25 124.29-24.5 122.04-25.6 119.79-26.7 117.04-26.7L117.04-26.7Q115.54-26.7 114.06-26.45 112.59-26.2 111.74-25.95L111.74-25.95Q111.69-23.65 111.46-21.48 111.24-19.3 110.94-17.25L110.94-17.25Q110.64-15.1 110.46-13.05 110.29-11 110.29-9L110.29-9Q110.29-6.5 111.31-5.73 112.34-4.95 114.39-4.95ZM139.34 0.65L139.34 0.65Q136.34 0.65 134.51-1.23 132.69-3.1 132.69-6.6L132.69-6.6Q132.69-9.1 133.66-11.58 134.64-14.05 136.49-16.05 138.34-18.05 140.94-19.25 143.54-20.45 146.79-20.45L146.79-20.45Q149.79-20.45 151.91-19.43 154.04-18.4 154.04-16.65L154.04-16.65Q154.04-16.2 153.94-15.48 153.84-14.75 153.69-14.3L153.69-14.3Q153.54-13.9 153.26-13.58 152.99-13.25 152.54-13.25L152.54-13.25Q152.34-13.25 151.79-13.4L151.79-13.4Q151.59-12.35 151.49-11.35 151.39-10.35 151.39-9.35L151.39-9.35Q151.39-7.45 151.96-5.98 152.54-4.5 154.24-4.15L154.24-4.15Q154.69-4.05 154.96-3.85 155.24-3.65 155.24-3L155.24-3Q155.24-2.45 154.96-1.6 154.69-0.75 153.91-0.08 153.14 0.6 151.69 0.6L151.69 0.6Q149.74 0.6 148.69-0.83 147.64-2.25 147.64-4.9L147.64-4.9Q146.29-2.45 144.21-0.9 142.14 0.65 139.34 0.65ZM140.94-4.55L140.94-4.55Q142.94-4.55 144.46-5.8 145.99-7.05 146.84-8.95L146.84-8.95Q147.39-10.15 147.69-11.58 147.99-13 148.09-14.4L148.09-14.4Q147.24-14.8 146.14-15.05 145.04-15.3 143.84-15.3L143.84-15.3Q140.79-15.3 138.81-13.5 136.84-11.7 136.84-9L136.84-9Q136.84-7 137.94-5.78 139.04-4.55 140.94-4.55ZM164.93 0.65L164.93 0.65Q163.08 0.65 161.48 0.1 159.88-0.45 158.88-1.45 157.88-2.45 157.88-3.85L157.88-3.85Q157.88-4.6 158.26-5.28 158.63-5.95 159.48-5.95L159.48-5.95Q159.93-5.95 160.43-5.7L160.43-5.7Q161.33-5.2 162.73-4.78 164.13-4.35 165.68-4.35L165.68-4.35Q167.43-4.35 168.78-4.85 170.13-5.35 170.13-6.25L170.13-6.25Q170.13-6.95 169.11-7.25 168.08-7.55 165.68-7.9L165.68-7.9Q164.03-8.2 162.48-8.6 160.93-9 159.93-9.98 158.93-10.95 158.93-12.85L158.93-12.85Q158.93-14.7 159.96-16.43 160.98-18.15 163.03-19.3 165.08-20.45 168.03-20.45L168.03-20.45Q169.58-20.45 171.03-20.1 172.48-19.75 173.43-19.05 174.38-18.35 174.38-17.3L174.38-17.3Q174.38-16.4 173.76-15.65 173.13-14.9 172.31-14.43 171.48-13.95 170.93-13.95L170.93-13.95Q170.53-13.95 169.98-14.5L169.98-14.5Q169.13-15.2 168.11-15.48 167.08-15.75 166.08-15.75L166.08-15.75Q164.58-15.75 163.66-15.3 162.73-14.85 162.73-14.15L162.73-14.15Q162.73-13.5 163.51-13.1 164.28-12.7 165.43-12.53 166.58-12.35 167.63-12.2L167.63-12.2Q170.53-11.8 172.23-10.83 173.93-9.85 173.93-7.4L173.93-7.4Q173.93-5.5 172.86-3.63 171.78-1.75 169.76-0.55 167.73 0.65 164.93 0.65ZM180.28 0.55L180.28 0.55Q179.58 0.55 179.08 0.23 178.58-0.1 178.68-0.65L178.68-0.65Q179.43-4.65 179.96-8.78 180.48-12.9 180.48-17.1L180.48-17.1Q180.48-20.8 180.23-23.8 179.98-26.8 178.63-29.55L178.63-29.55Q178.38-30.1 178.23-30.5 178.08-30.9 178.08-31.25L178.08-31.25Q178.08-32.2 179.21-33.1 180.33-34 181.58-34L181.58-34Q183.33-34 183.98-31.8 184.63-29.6 184.63-25.3L184.63-25.3Q184.63-20.15 184.03-16.32 183.43-12.5 182.98-10.5L182.98-10.5 183.18-10.4Q184.18-13.05 185.61-15.35 187.03-17.65 188.93-19.05 190.83-20.45 193.33-20.45L193.33-20.45Q195.98-20.45 197.36-18.85 198.73-17.25 198.73-14.9L198.73-14.9Q198.73-13.9 198.53-12.98 198.33-12.05 198.08-11.2L198.08-11.2Q197.83-10.4 197.63-9.58 197.43-8.75 197.43-7.9L197.43-7.9Q197.43-6.35 198.18-5.38 198.93-4.4 200.18-4L200.18-4Q200.53-3.9 200.71-3.73 200.88-3.55 200.88-3.1L200.88-3.1Q200.88-2.65 200.58-1.8 200.28-0.95 199.48-0.23 198.68 0.5 197.13 0.5L197.13 0.5Q195.13 0.5 194.03-0.93 192.93-2.35 192.93-4.6L192.93-4.6Q192.93-5.7 193.16-6.85 193.38-8 193.68-9.05L193.68-9.05Q193.93-10.1 194.13-11.03 194.33-11.95 194.33-12.6L194.33-12.6Q194.33-14.9 191.93-14.9L191.93-14.9Q189.93-14.9 188.41-13.48 186.88-12.05 185.81-9.88 184.73-7.7 184.03-5.4L184.03-5.4 184.03-3.7Q184.03-1.85 182.96-0.65 181.88 0.55 180.28 0.55ZM218.88-7.65L218.88-7.65Q218.13-7.65 218.13-9.1L218.13-9.1Q218.13-9.95 218.3-10.88 218.48-11.8 218.88-12.4L218.88-12.4Q218.98-12.55 219.23-12.73 219.48-12.9 219.93-12.9L219.93-12.9 230.73-12.9Q231.33-12.9 231.5-12.63 231.68-12.35 231.68-11.8L231.68-11.8Q231.68-11.25 231.53-10.4 231.38-9.55 231.03-8.9 230.68-8.25 230.08-8.25L230.08-8.25 225.63-8.25Q223.88-8.25 222.43-8.1 220.98-7.95 220.03-7.8L220.03-7.8Q219.28-7.65 218.88-7.65ZM257.82 0.65L257.82 0.65Q255.97 0.65 254.42 0.3 252.87-0.05 251.87-1L251.87-1Q251.12-1.7 250.87-2.58 250.62-3.45 250.62-4.5L250.62-4.5Q250.62-6.2 250.92-7.9L250.92-7.9Q251.37-10.85 251.72-14.25 252.07-17.65 252.07-20.55L252.07-20.55Q252.07-21.45 252-22.6 251.92-23.75 251.77-24.75L251.77-24.75Q251.42-24.6 251.09-24.48 250.77-24.35 250.52-24.35L250.52-24.35Q250.07-24.35 249.92-24.8 249.77-25.25 249.77-25.8L249.77-25.8Q249.77-27.25 250.44-28.28 251.12-29.3 252.67-30.1L252.67-30.1Q254.32-31 257-31.68 259.67-32.35 262.42-32.35L262.42-32.35Q268.67-32.35 272.25-28.68 275.82-25 275.82-18.25L275.82-18.25Q275.82-14.4 274.64-10.98 273.47-7.55 271.17-4.93 268.87-2.3 265.52-0.83 262.17 0.65 257.82 0.65ZM259.42-4.95L259.42-4.95Q261.67-4.95 263.92-5.65 266.17-6.35 268-7.75 269.82-9.15 270.92-11.33 272.02-13.5 272.02-16.55L272.02-16.55Q272.02-20 270.67-22.25 269.32-24.5 267.07-25.6 264.82-26.7 262.07-26.7L262.07-26.7Q260.57-26.7 259.1-26.45 257.62-26.2 256.77-25.95L256.77-25.95Q256.72-23.65 256.5-21.48 256.27-19.3 255.97-17.25L255.97-17.25Q255.67-15.1 255.5-13.05 255.32-11 255.32-9L255.32-9Q255.32-6.5 256.35-5.73 257.37-4.95 259.42-4.95ZM286.77 0.65L286.77 0.65Q282.97 0.65 280.84-1.53 278.72-3.7 278.72-7.6L278.72-7.6Q278.72-11.15 280.27-14.05 281.82-16.95 284.44-18.68 287.07-20.4 290.22-20.4L290.22-20.4Q293.22-20.4 295.02-18.93 296.82-17.45 296.82-15L296.82-15Q296.82-13.05 295.62-11.4 294.42-9.75 292.42-8.78 290.42-7.8 287.97-7.8L287.97-7.8Q284.97-7.8 283.07-9.15L283.07-9.15Q283.12-6.85 284.64-5.45 286.17-4.05 288.57-4.05L288.57-4.05Q290.02-4.05 291.54-4.58 293.07-5.1 294.17-6L294.17-6Q294.87-6.6 295.47-6.6L295.47-6.6Q295.97-6.6 296.29-6.28 296.62-5.95 296.62-5.45L296.62-5.45Q296.62-4.35 294.72-2.55L294.72-2.55Q291.37 0.65 286.77 0.65ZM287.52-11.1L287.52-11.1Q289.32-11.1 290.52-11.85 291.72-12.6 291.72-13.75L291.72-13.75Q291.72-14.7 290.92-15.23 290.12-15.75 288.72-15.75L288.72-15.75Q286.87-15.75 285.49-14.78 284.12-13.8 283.52-12.05L283.52-12.05Q284.22-11.6 285.32-11.35 286.42-11.1 287.52-11.1ZM303.97 0.5L303.97 0.5Q302.51 0.5 301.81-0.3 301.12-1.1 301.12-3.1L301.12-3.1Q301.12-4.05 301.26-5.55 301.42-7.05 301.62-8.8L301.62-8.8Q301.92-10.95 302.14-13.3 302.37-15.65 302.37-17.8L302.37-17.8Q302.37-20.85 302.09-24.13 301.81-27.4 300.56-29.85L300.56-29.85Q300.12-30.85 300.12-31.3L300.12-31.3Q300.12-31.95 300.69-32.55 301.26-33.15 302.12-33.58 302.97-34 303.76-34L303.76-34Q305.06-34 305.72-32.83 306.37-31.65 306.56-29.63 306.76-27.6 306.76-25L306.76-25Q306.76-21.05 306.44-18.15 306.12-15.25 305.81-13.05L305.81-13.05Q305.62-11.6 305.44-10.3 305.26-9 305.26-7.95L305.26-7.95Q305.26-6.2 305.84-5.43 306.42-4.65 307.72-3.9L307.72-3.9Q308.06-3.7 308.24-3.53 308.42-3.35 308.42-3L308.42-3Q308.42-2.6 308.01-1.75 307.62-0.9 306.64-0.2 305.67 0.5 303.97 0.5ZM315.86-24.85L315.86-24.85Q314.46-24.9 313.61-25.7 312.76-26.5 312.76-27.95L312.76-27.95Q312.81-29.5 313.81-30.48 314.81-31.45 316.36-31.4L316.36-31.4Q317.81-31.35 318.64-30.55 319.46-29.75 319.41-28.3L319.41-28.3Q319.36-26.8 318.41-25.83 317.46-24.85 315.86-24.85ZM315.91 0.5L315.91 0.5Q314.41 0.5 313.56-0.33 312.71-1.15 312.71-3.15L312.71-3.15Q312.71-4.3 312.94-5.4 313.16-6.5 313.46-7.55L313.46-7.55Q313.81-8.65 314.04-9.8 314.26-10.95 314.26-12.25L314.26-12.25Q314.26-13.15 314.01-13.98 313.76-14.8 312.91-15.2L312.91-15.2Q312.26-15.55 311.79-15.93 311.31-16.3 311.31-16.9L311.31-16.9Q311.31-17.6 311.96-18.4 312.61-19.2 313.69-19.78 314.76-20.35 315.91-20.35L315.91-20.35Q317.16-20.35 317.74-19.7 318.31-19.05 318.51-18.05 318.71-17.05 318.71-16L318.71-16Q318.71-14.4 318.46-12.88 318.21-11.35 317.96-10.05L317.96-10.05Q317.76-9.1 317.66-8.3 317.56-7.5 317.56-6.8L317.56-6.8Q317.56-5.55 318.16-4.93 318.76-4.3 319.86-3.75L319.86-3.75Q320.31-3.5 320.31-3L320.31-3Q320.31-2.6 319.91-1.75 319.51-0.9 318.54-0.2 317.56 0.5 315.91 0.5ZM331.31 0.65L331.31 0.65Q327.81 0.65 325.83-1.48 323.86-3.6 323.86-7.4L323.86-7.4Q323.86-11.15 325.46-14.1 327.06-17.05 329.86-18.75 332.66-20.45 336.21-20.45L336.21-20.45Q338.61-20.45 340.01-19.65 341.41-18.85 341.41-17.45L341.41-17.45Q341.41-16.2 340.21-15L340.21-15Q339.76-14.55 339.03-14.18 338.31-13.8 337.91-13.8L337.91-13.8Q337.46-13.8 337.16-14.15L337.16-14.15Q336.66-14.7 335.86-15.2 335.06-15.7 333.61-15.7L333.61-15.7Q331.16-15.7 329.61-14.03 328.06-12.35 328.06-9.65L328.06-9.65Q328.06-7.2 329.46-5.7 330.86-4.2 333.16-4.2L333.16-4.2Q334.36-4.2 335.78-4.63 337.21-5.05 338.31-5.85L338.31-5.85Q338.86-6.35 339.46-6.35L339.46-6.35Q340.46-6.35 340.46-5.1L340.46-5.1Q340.46-3.45 338.81-1.95L338.81-1.95Q337.56-0.8 335.48-0.08 333.41 0.65 331.31 0.65ZM348.76-24.85L348.76-24.85Q347.36-24.9 346.51-25.7 345.66-26.5 345.66-27.95L345.66-27.95Q345.71-29.5 346.71-30.48 347.71-31.45 349.26-31.4L349.26-31.4Q350.71-31.35 351.53-30.55 352.36-29.75 352.31-28.3L352.31-28.3Q352.26-26.8 351.31-25.83 350.36-24.85 348.76-24.85ZM348.81 0.5L348.81 0.5Q347.31 0.5 346.46-0.33 345.61-1.15 345.61-3.15L345.61-3.15Q345.61-4.3 345.83-5.4 346.06-6.5 346.36-7.55L346.36-7.55Q346.71-8.65 346.93-9.8 347.16-10.95 347.16-12.25L347.16-12.25Q347.16-13.15 346.91-13.98 346.66-14.8 345.81-15.2L345.81-15.2Q345.16-15.55 344.68-15.93 344.21-16.3 344.21-16.9L344.21-16.9Q344.21-17.6 344.86-18.4 345.51-19.2 346.58-19.78 347.66-20.35 348.81-20.35L348.81-20.35Q350.06-20.35 350.63-19.7 351.21-19.05 351.41-18.05 351.61-17.05 351.61-16L351.61-16Q351.61-14.4 351.36-12.88 351.11-11.35 350.86-10.05L350.86-10.05Q350.66-9.1 350.56-8.3 350.46-7.5 350.46-6.8L350.46-6.8Q350.46-5.55 351.06-4.93 351.66-4.3 352.76-3.75L352.76-3.75Q353.21-3.5 353.21-3L353.21-3Q353.21-2.6 352.81-1.75 352.41-0.9 351.43-0.2 350.46 0.5 348.81 0.5ZM364.85 0.65L364.85 0.65Q361.4 0.65 359.33-1.23 357.25-3.1 357.25-6.75L357.25-6.75Q357.25-8.45 357.73-10.05 358.2-11.65 359-13.05L359-13.05Q358.2-12.55 357.8-12.55L357.8-12.55Q357.2-12.55 356.98-13.23 356.75-13.9 356.75-14.55L356.75-14.55Q356.75-15.7 357.23-16.38 357.7-17.05 358.15-17.4L358.15-17.4Q359.2-18.3 361.45-19.38 363.7-20.45 366.85-20.45L366.85-20.45Q371.15-20.45 373.53-18.05 375.9-15.65 375.9-11.35L375.9-11.35Q375.9-8 374.5-5.28 373.1-2.55 370.63-0.95 368.15 0.65 364.85 0.65ZM366.4-4.45L366.4-4.45Q368.9-4.45 370.63-6.03 372.35-7.6 372.35-10.2L372.35-10.2Q372.35-12.9 370.6-14.05 368.85-15.2 366.55-15.2L366.55-15.2Q365.5-15.2 364.65-15 363.8-14.8 363.05-14.5L363.05-14.5Q362.35-13.5 361.8-12.25 361.25-11 361.25-9.5L361.25-9.5Q361.25-7 362.75-5.73 364.25-4.45 366.4-4.45ZM386 0.65L386 0.65Q383.5 0.65 382.13-0.8 380.75-2.25 380.75-5L380.75-5Q380.75-6.95 381.3-9L381.3-9Q381.55-9.85 381.7-10.7 381.85-11.55 381.85-12.4L381.85-12.4Q381.85-14.6 380.5-15.25L380.5-15.25Q379.2-15.95 379.2-16.75L379.2-16.75Q379.2-17.55 379.88-18.35 380.55-19.15 381.55-19.68 382.55-20.2 383.55-20.2L383.55-20.2Q386.4-20.2 386.4-15.55L386.4-15.55Q386.4-14.05 386.18-12.78 385.95-11.5 385.65-10.35L385.65-10.35Q385.45-9.55 385.33-8.75 385.2-7.95 385.2-7.35L385.2-7.35Q385.2-4.85 387.65-4.85L387.65-4.85Q389.95-4.85 391.95-7.3 393.95-9.75 395.25-14.15L395.25-14.15 395.2-15.1Q395.1-17.6 396.08-18.9 397.05-20.2 398.95-20.2L398.95-20.2Q400.6-20.2 400.6-19.15L400.6-19.15Q400.6-18.8 400.48-18.25 400.35-17.7 400.1-16.95L400.1-16.95Q399.6-15.1 399.25-13.03 398.9-10.95 398.9-9.2L398.9-9.2Q398.9-7.25 399.5-5.98 400.1-4.7 401.75-4.25L401.75-4.25Q402.2-4.2 402.48-3.98 402.75-3.75 402.75-3.05L402.75-3.05Q402.75-1.85 401.75-0.7 400.75 0.45 398.85 0.45L398.85 0.45Q395.2 0.45 395.2-4.7L395.2-4.7Q395.2-5.6 395.35-7.4L395.35-7.4 395.25-7.45Q392.1 0.65 386 0.65ZM412.2 0.65L412.2 0.65Q410.35 0.65 408.75 0.1 407.15-0.45 406.15-1.45 405.15-2.45 405.15-3.85L405.15-3.85Q405.15-4.6 405.52-5.28 405.9-5.95 406.75-5.95L406.75-5.95Q407.2-5.95 407.7-5.7L407.7-5.7Q408.6-5.2 410-4.78 411.4-4.35 412.95-4.35L412.95-4.35Q414.7-4.35 416.05-4.85 417.4-5.35 417.4-6.25L417.4-6.25Q417.4-6.95 416.38-7.25 415.35-7.55 412.95-7.9L412.95-7.9Q411.3-8.2 409.75-8.6 408.2-9 407.2-9.98 406.2-10.95 406.2-12.85L406.2-12.85Q406.2-14.7 407.22-16.43 408.25-18.15 410.3-19.3 412.35-20.45 415.3-20.45L415.3-20.45Q416.85-20.45 418.3-20.1 419.75-19.75 420.7-19.05 421.65-18.35 421.65-17.3L421.65-17.3Q421.65-16.4 421.02-15.65 420.4-14.9 419.57-14.43 418.75-13.95 418.2-13.95L418.2-13.95Q417.8-13.95 417.25-14.5L417.25-14.5Q416.4-15.2 415.38-15.48 414.35-15.75 413.35-15.75L413.35-15.75Q411.85-15.75 410.93-15.3 410-14.85 410-14.15L410-14.15Q410-13.5 410.77-13.1 411.55-12.7 412.7-12.53 413.85-12.35 414.9-12.2L414.9-12.2Q417.8-11.8 419.5-10.83 421.2-9.85 421.2-7.4L421.2-7.4Q421.2-5.5 420.13-3.63 419.05-1.75 417.02-0.55 415 0.65 412.2 0.65ZM448.29 0.65L448.29 0.65Q446.44 0.65 444.89 0.3 443.34-0.05 442.34-1L442.34-1Q441.59-1.7 441.34-2.58 441.09-3.45 441.09-4.5L441.09-4.5Q441.09-6.2 441.39-7.9L441.39-7.9Q441.84-10.85 442.19-14.25 442.54-17.65 442.54-20.55L442.54-20.55Q442.54-21.45 442.47-22.6 442.39-23.75 442.24-24.75L442.24-24.75Q441.89-24.6 441.57-24.48 441.24-24.35 440.99-24.35L440.99-24.35Q440.54-24.35 440.39-24.8 440.24-25.25 440.24-25.8L440.24-25.8Q440.24-27.25 440.92-28.28 441.59-29.3 443.14-30.1L443.14-30.1Q444.79-31 447.47-31.68 450.14-32.35 452.89-32.35L452.89-32.35Q459.14-32.35 462.72-28.68 466.29-25 466.29-18.25L466.29-18.25Q466.29-14.4 465.12-10.98 463.94-7.55 461.64-4.93 459.34-2.3 455.99-0.83 452.64 0.65 448.29 0.65ZM449.89-4.95L449.89-4.95Q452.14-4.95 454.39-5.65 456.64-6.35 458.47-7.75 460.29-9.15 461.39-11.33 462.49-13.5 462.49-16.55L462.49-16.55Q462.49-20 461.14-22.25 459.79-24.5 457.54-25.6 455.29-26.7 452.54-26.7L452.54-26.7Q451.04-26.7 449.57-26.45 448.09-26.2 447.24-25.95L447.24-25.95Q447.19-23.65 446.97-21.48 446.74-19.3 446.44-17.25L446.44-17.25Q446.14-15.1 445.97-13.05 445.79-11 445.79-9L445.79-9Q445.79-6.5 446.82-5.73 447.84-4.95 449.89-4.95ZM477.24 0.65L477.24 0.65Q473.44 0.65 471.32-1.53 469.19-3.7 469.19-7.6L469.19-7.6Q469.19-11.15 470.74-14.05 472.29-16.95 474.92-18.68 477.54-20.4 480.69-20.4L480.69-20.4Q483.69-20.4 485.49-18.93 487.29-17.45 487.29-15L487.29-15Q487.29-13.05 486.09-11.4 484.89-9.75 482.89-8.78 480.89-7.8 478.44-7.8L478.44-7.8Q475.44-7.8 473.54-9.15L473.54-9.15Q473.59-6.85 475.12-5.45 476.64-4.05 479.04-4.05L479.04-4.05Q480.49-4.05 482.02-4.58 483.54-5.1 484.64-6L484.64-6Q485.34-6.6 485.94-6.6L485.94-6.6Q486.44-6.6 486.77-6.28 487.09-5.95 487.09-5.45L487.09-5.45Q487.09-4.35 485.19-2.55L485.19-2.55Q481.84 0.65 477.24 0.65ZM477.99-11.1L477.99-11.1Q479.79-11.1 480.99-11.85 482.19-12.6 482.19-13.75L482.19-13.75Q482.19-14.7 481.39-15.23 480.59-15.75 479.19-15.75L479.19-15.75Q477.34-15.75 475.97-14.78 474.59-13.8 473.99-12.05L473.99-12.05Q474.69-11.6 475.79-11.35 476.89-11.1 477.99-11.1ZM494.44 0.5L494.44 0.5Q492.99 0.5 492.29-0.3 491.59-1.1 491.59-3.1L491.59-3.1Q491.59-4.05 491.74-5.55 491.89-7.05 492.09-8.8L492.09-8.8Q492.39-10.95 492.61-13.3 492.84-15.65 492.84-17.8L492.84-17.8Q492.84-20.85 492.56-24.13 492.29-27.4 491.04-29.85L491.04-29.85Q490.59-30.85 490.59-31.3L490.59-31.3Q490.59-31.95 491.16-32.55 491.74-33.15 492.59-33.58 493.44-34 494.24-34L494.24-34Q495.54-34 496.19-32.83 496.84-31.65 497.04-29.63 497.24-27.6 497.24-25L497.24-25Q497.24-21.05 496.91-18.15 496.59-15.25 496.29-13.05L496.29-13.05Q496.09-11.6 495.91-10.3 495.74-9 495.74-7.95L495.74-7.95Q495.74-6.2 496.31-5.43 496.89-4.65 498.19-3.9L498.19-3.9Q498.54-3.7 498.71-3.53 498.89-3.35 498.89-3L498.89-3Q498.89-2.6 498.49-1.75 498.09-0.9 497.11-0.2 496.14 0.5 494.44 0.5ZM506.34-24.85L506.34-24.85Q504.94-24.9 504.09-25.7 503.24-26.5 503.24-27.95L503.24-27.95Q503.29-29.5 504.29-30.48 505.29-31.45 506.84-31.4L506.84-31.4Q508.29-31.35 509.11-30.55 509.94-29.75 509.89-28.3L509.89-28.3Q509.84-26.8 508.89-25.83 507.94-24.85 506.34-24.85ZM506.39 0.5L506.39 0.5Q504.89 0.5 504.04-0.33 503.19-1.15 503.19-3.15L503.19-3.15Q503.19-4.3 503.41-5.4 503.64-6.5 503.94-7.55L503.94-7.55Q504.29-8.65 504.51-9.8 504.74-10.95 504.74-12.25L504.74-12.25Q504.74-13.15 504.49-13.98 504.24-14.8 503.39-15.2L503.39-15.2Q502.74-15.55 502.26-15.93 501.79-16.3 501.79-16.9L501.79-16.9Q501.79-17.6 502.44-18.4 503.09-19.2 504.16-19.78 505.24-20.35 506.39-20.35L506.39-20.35Q507.64-20.35 508.21-19.7 508.79-19.05 508.99-18.05 509.19-17.05 509.19-16L509.19-16Q509.19-14.4 508.94-12.88 508.69-11.35 508.44-10.05L508.44-10.05Q508.24-9.1 508.14-8.3 508.04-7.5 508.04-6.8L508.04-6.8Q508.04-5.55 508.64-4.93 509.24-4.3 510.34-3.75L510.34-3.75Q510.79-3.5 510.79-3L510.79-3Q510.79-2.6 510.39-1.75 509.99-0.9 509.01-0.2 508.04 0.5 506.39 0.5ZM521.58 0.7L521.58 0.7Q520.23 0.7 519.26-0.13 518.28-0.95 518.08-3.2L518.08-3.2Q517.98-4.9 517.66-6.95 517.33-9 516.83-10.85 516.33-12.7 515.68-13.75L515.68-13.75Q515.33-14.3 514.91-14.58 514.48-14.85 513.63-14.95L513.63-14.95Q513.08-15 512.88-15.3 512.68-15.6 512.68-16.25L512.68-16.25Q512.68-18.3 513.81-19.28 514.93-20.25 516.38-20.25L516.38-20.25Q517.88-20.25 518.88-19.28 519.88-18.3 520.43-16.7 520.98-15.1 521.21-13.18 521.43-11.25 521.43-9.3L521.43-9.3Q521.43-8.5 521.41-7.63 521.38-6.75 521.38-6.15L521.38-6.15Q521.38-5.6 521.61-5.3 521.83-5 522.48-5L522.48-5Q523.28-5 524.33-5.48 525.38-5.95 526.41-6.85 527.43-7.75 528.11-8.97 528.78-10.2 528.78-11.7L528.78-11.7Q528.78-12.55 528.51-13.5 528.23-14.45 527.63-15.1L527.63-15.1Q527.03-15.75 526.76-16.13 526.48-16.5 526.48-17L526.48-17Q526.48-17.9 527.31-18.65 528.13-19.4 529.26-19.85 530.38-20.3 531.23-20.3L531.23-20.3Q532.68-20.3 533.08-19.1 533.48-17.9 533.48-16.45L533.48-16.45Q533.48-13.7 532.48-10.7 531.48-7.7 529.78-5.1 528.08-2.5 525.96-0.9 523.83 0.7 521.58 0.7ZM544.48 0.65L544.48 0.65Q540.68 0.65 538.56-1.53 536.43-3.7 536.43-7.6L536.43-7.6Q536.43-11.15 537.98-14.05 539.53-16.95 542.16-18.68 544.78-20.4 547.93-20.4L547.93-20.4Q550.93-20.4 552.73-18.93 554.53-17.45 554.53-15L554.53-15Q554.53-13.05 553.33-11.4 552.13-9.75 550.13-8.78 548.13-7.8 545.68-7.8L545.68-7.8Q542.68-7.8 540.78-9.15L540.78-9.15Q540.83-6.85 542.36-5.45 543.88-4.05 546.28-4.05L546.28-4.05Q547.73-4.05 549.26-4.58 550.78-5.1 551.88-6L551.88-6Q552.58-6.6 553.18-6.6L553.18-6.6Q553.68-6.6 554.01-6.28 554.33-5.95 554.33-5.45L554.33-5.45Q554.33-4.35 552.43-2.55L552.43-2.55Q549.08 0.65 544.48 0.65ZM545.23-11.1L545.23-11.1Q547.03-11.1 548.23-11.85 549.43-12.6 549.43-13.75L549.43-13.75Q549.43-14.7 548.63-15.23 547.83-15.75 546.43-15.75L546.43-15.75Q544.58-15.75 543.21-14.78 541.83-13.8 541.23-12.05L541.23-12.05Q541.93-11.6 543.03-11.35 544.13-11.1 545.23-11.1ZM561.38 0.55L561.38 0.55Q560.58 0.55 560.1 0.28 559.63 0 559.78-0.65L559.78-0.65Q560.33-2.8 560.7-5.03 561.08-7.25 561.08-9.3L561.08-9.3Q561.08-11.95 560.75-13.18 560.43-14.4 559.88-14.88 559.33-15.35 558.53-15.6L558.53-15.6Q558.18-15.75 557.9-16 557.63-16.25 557.63-16.7L557.63-16.7Q557.63-17.4 558.18-18.25 558.73-19.1 559.73-19.73 560.73-20.35 562.03-20.35L562.03-20.35Q563.73-20.35 564.4-19.18 565.08-18 565.08-16.1L565.08-16.1Q565.98-18.1 567.3-19.28 568.63-20.45 570.63-20.45L570.63-20.45Q571.98-20.45 572.88-19.85 573.78-19.25 573.78-17.9L573.78-17.9Q573.78-16.55 572.9-15.38 572.03-14.2 571.13-14.2L571.13-14.2Q570.98-14.2 570.78-14.25 570.58-14.3 570.43-14.5L570.43-14.5Q569.78-15.3 568.83-15.3L568.83-15.3Q567.38-15.3 566.28-13.4 565.18-11.5 565.08-8.15L565.08-8.15Q565.13-6.9 565.15-5.6 565.18-4.3 565.18-3.7L565.18-3.7Q565.18-1.85 564.15-0.65 563.13 0.55 561.38 0.55ZM582.23 0.65L582.23 0.65Q578.43 0.65 576.3-1.53 574.18-3.7 574.18-7.6L574.18-7.6Q574.18-11.15 575.73-14.05 577.28-16.95 579.9-18.68 582.53-20.4 585.68-20.4L585.68-20.4Q588.68-20.4 590.48-18.93 592.28-17.45 592.28-15L592.28-15Q592.28-13.05 591.08-11.4 589.88-9.75 587.88-8.78 585.88-7.8 583.43-7.8L583.43-7.8Q580.43-7.8 578.53-9.15L578.53-9.15Q578.58-6.85 580.1-5.45 581.63-4.05 584.03-4.05L584.03-4.05Q585.48-4.05 587-4.58 588.53-5.1 589.63-6L589.63-6Q590.33-6.6 590.93-6.6L590.93-6.6Q591.43-6.6 591.75-6.28 592.08-5.95 592.08-5.45L592.08-5.45Q592.08-4.35 590.18-2.55L590.18-2.55Q586.83 0.65 582.23 0.65ZM582.98-11.1L582.98-11.1Q584.78-11.1 585.98-11.85 587.18-12.6 587.18-13.75L587.18-13.75Q587.18-14.7 586.38-15.23 585.58-15.75 584.18-15.75L584.18-15.75Q582.33-15.75 580.95-14.78 579.58-13.8 578.98-12.05L578.98-12.05Q579.68-11.6 580.78-11.35 581.88-11.1 582.98-11.1ZM602.37 0.65L602.37 0.65Q599.37 0.65 597.65-1.35 595.92-3.35 595.92-6.8L595.92-6.8Q595.92-9.35 596.75-11.8 597.57-14.25 599.07-16.2 600.57-18.15 602.57-19.3 604.57-20.45 606.92-20.45L606.92-20.45Q608.42-20.45 609.6-20 610.77-19.55 611.67-18.85L611.67-18.85Q611.62-22.25 611.32-24.95 611.02-27.65 609.87-29.95L609.87-29.95Q609.67-30.35 609.55-30.68 609.42-31 609.42-31.3L609.42-31.3Q609.42-32 610-32.6 610.57-33.2 611.42-33.6 612.27-34 613.02-34L613.02-34Q614.37-34 615.05-32.83 615.72-31.65 615.92-29.63 616.12-27.6 616.12-25L616.12-25Q616.12-21.2 615.77-18.15 615.42-15.1 615.12-12.8L615.12-12.8Q614.92-11.3 614.77-10.2 614.62-9.1 614.62-8.4L614.62-8.4Q614.62-4.85 617.67-4.2L617.67-4.2Q618.47-4.05 618.47-3.15L618.47-3.15Q618.47-2.6 618.15-1.75 617.82-0.9 616.97-0.23 616.12 0.45 614.52 0.45L614.52 0.45Q612.37 0.45 611.62-1 610.87-2.45 610.87-5.4L610.87-5.4Q609.47-2.85 607.32-1.1 605.17 0.65 602.37 0.65ZM603.92-4.7L603.92-4.7Q605.32-4.7 606.72-5.6 608.12-6.5 609.22-8.05L609.22-8.05Q609.87-9 610.4-10.23 610.92-11.45 611.37-12.7L611.37-12.7Q608.82-15 605.72-15L605.72-15Q603.02-15 601.42-13.38 599.82-11.75 599.82-9.35L599.82-9.35Q599.82-7.3 601.02-6 602.22-4.7 603.92-4.7ZM640.42-24.85L640.42-24.85Q639.02-24.9 638.17-25.7 637.32-26.5 637.32-27.95L637.32-27.95Q637.37-29.5 638.37-30.48 639.37-31.45 640.92-31.4L640.92-31.4Q642.37-31.35 643.19-30.55 644.02-29.75 643.97-28.3L643.97-28.3Q643.92-26.8 642.97-25.83 642.02-24.85 640.42-24.85ZM640.47 0.5L640.47 0.5Q638.97 0.5 638.12-0.33 637.27-1.15 637.27-3.15L637.27-3.15Q637.27-4.3 637.49-5.4 637.72-6.5 638.02-7.55L638.02-7.55Q638.37-8.65 638.59-9.8 638.82-10.95 638.82-12.25L638.82-12.25Q638.82-13.15 638.57-13.98 638.32-14.8 637.47-15.2L637.47-15.2Q636.82-15.55 636.34-15.93 635.87-16.3 635.87-16.9L635.87-16.9Q635.87-17.6 636.52-18.4 637.17-19.2 638.24-19.78 639.32-20.35 640.47-20.35L640.47-20.35Q641.72-20.35 642.29-19.7 642.87-19.05 643.07-18.05 643.27-17.05 643.27-16L643.27-16Q643.27-14.4 643.02-12.88 642.77-11.35 642.52-10.05L642.52-10.05Q642.32-9.1 642.22-8.3 642.12-7.5 642.12-6.8L642.12-6.8Q642.12-5.55 642.72-4.93 643.32-4.3 644.42-3.75L644.42-3.75Q644.87-3.5 644.87-3L644.87-3Q644.87-2.6 644.47-1.75 644.07-0.9 643.09-0.2 642.12 0.5 640.47 0.5ZM651.42 0.55L651.42 0.55Q649.62 0.55 649.82-0.65L649.82-0.65Q650.37-2.8 650.74-5.03 651.12-7.25 651.12-9.3L651.12-9.3Q651.12-11.95 650.79-13.18 650.47-14.4 649.92-14.88 649.37-15.35 648.57-15.6L648.57-15.6Q648.22-15.75 647.94-16 647.67-16.25 647.67-16.7L647.67-16.7Q647.67-17.4 648.22-18.25 648.77-19.1 649.79-19.73 650.82-20.35 652.12-20.35L652.12-20.35Q653.82-20.35 654.47-19.18 655.12-18 655.12-16.1L655.12-16.1Q655.12-14.85 654.87-13.3 654.62-11.75 654.37-10.5L654.37-10.5 654.52-10.45Q655.52-13.1 656.94-15.38 658.37-17.65 660.27-19.05 662.17-20.45 664.67-20.45L664.67-20.45Q667.32-20.45 668.72-18.85 670.12-17.25 670.12-14.85L670.12-14.85Q670.12-13.85 669.89-12.95 669.67-12.05 669.42-11.2L669.42-11.2Q669.17-10.4 668.99-9.55 668.82-8.7 668.82-7.85L668.82-7.85Q668.82-5 671.52-4L671.52-4Q672.22-3.7 672.22-3.1L672.22-3.1Q672.22-2.65 671.92-1.8 671.62-0.95 670.82-0.23 670.02 0.5 668.47 0.5L668.47 0.5Q666.47 0.5 665.37-0.93 664.27-2.35 664.27-4.55L664.27-4.55Q664.27-5.8 664.54-7.08 664.82-8.35 665.12-9.45L665.12-9.45Q665.32-10.3 665.49-11.13 665.67-11.95 665.67-12.6L665.67-12.6Q665.67-14.9 663.27-14.9L663.27-14.9Q661.22-14.9 659.67-13.38 658.12-11.85 657.02-9.55 655.92-7.25 655.22-4.9L655.22-4.9 655.22-3.7Q655.22-1.85 654.19-0.65 653.17 0.55 651.42 0.55ZM696.11 0.65L696.11 0.65Q693.11 0.65 691.29-1.23 689.46-3.1 689.46-6.6L689.46-6.6Q689.46-9.1 690.44-11.58 691.41-14.05 693.26-16.05 695.11-18.05 697.71-19.25 700.31-20.45 703.56-20.45L703.56-20.45Q706.56-20.45 708.69-19.43 710.81-18.4 710.81-16.65L710.81-16.65Q710.81-16.2 710.71-15.48 710.61-14.75 710.46-14.3L710.46-14.3Q710.31-13.9 710.04-13.58 709.76-13.25 709.31-13.25L709.31-13.25Q709.11-13.25 708.56-13.4L708.56-13.4Q708.36-12.35 708.26-11.35 708.16-10.35 708.16-9.35L708.16-9.35Q708.16-7.45 708.74-5.98 709.31-4.5 711.01-4.15L711.01-4.15Q711.46-4.05 711.74-3.85 712.01-3.65 712.01-3L712.01-3Q712.01-2.45 711.74-1.6 711.46-0.75 710.69-0.08 709.91 0.6 708.46 0.6L708.46 0.6Q706.51 0.6 705.46-0.83 704.41-2.25 704.41-4.9L704.41-4.9Q703.06-2.45 700.99-0.9 698.91 0.65 696.11 0.65ZM697.71-4.55L697.71-4.55Q699.71-4.55 701.24-5.8 702.76-7.05 703.61-8.95L703.61-8.95Q704.16-10.15 704.46-11.58 704.76-13 704.86-14.4L704.86-14.4Q704.01-14.8 702.91-15.05 701.81-15.3 700.61-15.3L700.61-15.3Q697.56-15.3 695.59-13.5 693.61-11.7 693.61-9L693.61-9Q693.61-7 694.71-5.78 695.81-4.55 697.71-4.55ZM737.91 0.65L737.91 0.65Q736.06 0.65 734.51 0.3 732.96-0.05 731.96-1L731.96-1Q731.21-1.7 730.96-2.58 730.71-3.45 730.71-4.5L730.71-4.5Q730.71-6.2 731.01-7.9L731.01-7.9Q731.46-10.85 731.81-14.25 732.16-17.65 732.16-20.55L732.16-20.55Q732.16-21.45 732.08-22.6 732.01-23.75 731.86-24.75L731.86-24.75Q731.51-24.6 731.18-24.48 730.86-24.35 730.61-24.35L730.61-24.35Q730.16-24.35 730.01-24.8 729.86-25.25 729.86-25.8L729.86-25.8Q729.86-27.25 730.53-28.28 731.21-29.3 732.76-30.1L732.76-30.1Q734.41-31 737.08-31.68 739.76-32.35 742.51-32.35L742.51-32.35Q748.76-32.35 752.33-28.68 755.91-25 755.91-18.25L755.91-18.25Q755.91-14.4 754.73-10.98 753.56-7.55 751.26-4.93 748.96-2.3 745.61-0.83 742.26 0.65 737.91 0.65ZM739.51-4.95L739.51-4.95Q741.76-4.95 744.01-5.65 746.26-6.35 748.08-7.75 749.91-9.15 751.01-11.33 752.11-13.5 752.11-16.55L752.11-16.55Q752.11-20 750.76-22.25 749.41-24.5 747.16-25.6 744.91-26.7 742.16-26.7L742.16-26.7Q740.66-26.7 739.18-26.45 737.71-26.2 736.86-25.95L736.86-25.95Q736.81-23.65 736.58-21.48 736.36-19.3 736.06-17.25L736.06-17.25Q735.76-15.1 735.58-13.05 735.41-11 735.41-9L735.41-9Q735.41-6.5 736.43-5.73 737.46-4.95 739.51-4.95ZM764.45 0.65L764.45 0.65Q761.45 0.65 759.63-1.23 757.8-3.1 757.8-6.6L757.8-6.6Q757.8-9.1 758.78-11.58 759.75-14.05 761.6-16.05 763.45-18.05 766.05-19.25 768.65-20.45 771.9-20.45L771.9-20.45Q774.9-20.45 777.03-19.43 779.15-18.4 779.15-16.65L779.15-16.65Q779.15-16.2 779.05-15.48 778.95-14.75 778.8-14.3L778.8-14.3Q778.65-13.9 778.38-13.58 778.1-13.25 777.65-13.25L777.65-13.25Q777.45-13.25 776.9-13.4L776.9-13.4Q776.7-12.35 776.6-11.35 776.5-10.35 776.5-9.35L776.5-9.35Q776.5-7.45 777.08-5.98 777.65-4.5 779.35-4.15L779.35-4.15Q779.8-4.05 780.08-3.85 780.35-3.65 780.35-3L780.35-3Q780.35-2.45 780.08-1.6 779.8-0.75 779.03-0.08 778.25 0.6 776.8 0.6L776.8 0.6Q774.85 0.6 773.8-0.83 772.75-2.25 772.75-4.9L772.75-4.9Q771.4-2.45 769.33-0.9 767.25 0.65 764.45 0.65ZM766.05-4.55L766.05-4.55Q768.05-4.55 769.58-5.8 771.1-7.05 771.95-8.95L771.95-8.95Q772.5-10.15 772.8-11.58 773.1-13 773.2-14.4L773.2-14.4Q772.35-14.8 771.25-15.05 770.15-15.3 768.95-15.3L768.95-15.3Q765.9-15.3 763.93-13.5 761.95-11.7 761.95-9L761.95-9Q761.95-7 763.05-5.78 764.15-4.55 766.05-4.55ZM790.05 0.65L790.05 0.65Q788.2 0.65 786.6 0.1 785-0.45 784-1.45 783-2.45 783-3.85L783-3.85Q783-4.6 783.38-5.28 783.75-5.95 784.6-5.95L784.6-5.95Q785.05-5.95 785.55-5.7L785.55-5.7Q786.45-5.2 787.85-4.78 789.25-4.35 790.8-4.35L790.8-4.35Q792.55-4.35 793.9-4.85 795.25-5.35 795.25-6.25L795.25-6.25Q795.25-6.95 794.23-7.25 793.2-7.55 790.8-7.9L790.8-7.9Q789.15-8.2 787.6-8.6 786.05-9 785.05-9.98 784.05-10.95 784.05-12.85L784.05-12.85Q784.05-14.7 785.08-16.43 786.1-18.15 788.15-19.3 790.2-20.45 793.15-20.45L793.15-20.45Q794.7-20.45 796.15-20.1 797.6-19.75 798.55-19.05 799.5-18.35 799.5-17.3L799.5-17.3Q799.5-16.4 798.88-15.65 798.25-14.9 797.43-14.43 796.6-13.95 796.05-13.95L796.05-13.95Q795.65-13.95 795.1-14.5L795.1-14.5Q794.25-15.2 793.23-15.48 792.2-15.75 791.2-15.75L791.2-15.75Q789.7-15.75 788.78-15.3 787.85-14.85 787.85-14.15L787.85-14.15Q787.85-13.5 788.63-13.1 789.4-12.7 790.55-12.53 791.7-12.35 792.75-12.2L792.75-12.2Q795.65-11.8 797.35-10.83 799.05-9.85 799.05-7.4L799.05-7.4Q799.05-5.5 797.98-3.63 796.9-1.75 794.88-0.55 792.85 0.65 790.05 0.65ZM805.4 0.55L805.4 0.55Q804.7 0.55 804.2 0.23 803.7-0.1 803.8-0.65L803.8-0.65Q804.55-4.65 805.07-8.78 805.6-12.9 805.6-17.1L805.6-17.1Q805.6-20.8 805.35-23.8 805.1-26.8 803.75-29.55L803.75-29.55Q803.5-30.1 803.35-30.5 803.2-30.9 803.2-31.25L803.2-31.25Q803.2-32.2 804.32-33.1 805.45-34 806.7-34L806.7-34Q808.45-34 809.1-31.8 809.75-29.6 809.75-25.3L809.75-25.3Q809.75-20.15 809.15-16.32 808.55-12.5 808.1-10.5L808.1-10.5 808.3-10.4Q809.3-13.05 810.72-15.35 812.15-17.65 814.05-19.05 815.95-20.45 818.45-20.45L818.45-20.45Q821.1-20.45 822.47-18.85 823.85-17.25 823.85-14.9L823.85-14.9Q823.85-13.9 823.65-12.98 823.45-12.05 823.2-11.2L823.2-11.2Q822.95-10.4 822.75-9.58 822.55-8.75 822.55-7.9L822.55-7.9Q822.55-6.35 823.3-5.38 824.05-4.4 825.3-4L825.3-4Q825.65-3.9 825.82-3.73 826-3.55 826-3.1L826-3.1Q826-2.65 825.7-1.8 825.4-0.95 824.6-0.23 823.8 0.5 822.25 0.5L822.25 0.5Q820.25 0.5 819.15-0.93 818.05-2.35 818.05-4.6L818.05-4.6Q818.05-5.7 818.27-6.85 818.5-8 818.8-9.05L818.8-9.05Q819.05-10.1 819.25-11.03 819.45-11.95 819.45-12.6L819.45-12.6Q819.45-14.9 817.05-14.9L817.05-14.9Q815.05-14.9 813.52-13.48 812-12.05 810.92-9.88 809.85-7.7 809.15-5.4L809.15-5.4 809.15-3.7Q809.15-1.85 808.07-0.65 807 0.55 805.4 0.55Z" opacity="1" transform="matrix(1,0,0,1,0,0)" fill="#4d7e3e" class="slogan-text-1" data-fill-palette-color="secondary" id="text-1"/></svg></g></svg></g></svg></g></svg></g><g transform="matrix(1,0,0,1,119.66948254379196,0)"><svg viewBox="0 0 156.18103491241612 156.18103491241612" height="156.18103491241612" width="156.18103491241612"><g><svg xmlns="http://www.w3.org/2000/svg" viewBox="3 3 26 26" x="0" y="0" height="156.18103491241612" width="156.18103491241612" class="icon-icon-0" data-fill-palette-color="accent" id="icon-0"><g fill="#4d7e3e" data-fill-palette-color="accent"><path d="M16 3A13 13 0 1 0 29 16 13 13 0 0 0 16 3M16 27A11 11 0 1 1 27 16 11 11 0 0 1 16 27" fill="#4d7e3e" data-fill-palette-color="accent"/><path d="M11 12A1 1 0 0 1 12 13 1 1 0 0 0 14 13 3 3 0 0 0 8 13 1 1 0 0 0 10 13 1 1 0 0 1 11 12" fill="#4d7e3e" data-fill-palette-color="accent"/><path d="M21 10A3 3 0 0 0 18 13 1 1 0 0 0 20 13 1 1 0 0 1 22 13 1 1 0 0 0 24 13 3 3 0 0 0 21 10" fill="#4d7e3e" data-fill-palette-color="accent"/><path d="M19 17A3 3 0 0 0 16 20V21H11A1 1 0 0 0 11 23H21A1 1 0 0 0 22 22V20A3 3 0 0 0 19 17M18 21V20A1 1 0 0 1 20 20V21Z" fill="#4d7e3e" data-fill-palette-color="accent"/></g></svg></g></svg></g><g/></svg></g><defs/></svg><rect width="339.9668204569029" height="247.2" fill="none" stroke="none" visibility="hidden"/></g></svg></g></svg>