<svg transform="scale(1)" id="_0530_Empty_Cart_2" xmlns="http://www.w3.org/2000/svg" viewBox="0 0 500 500" class="show_show__wrapper__graphic__5Waiy "><title>React</title><defs><style>.cls-1{fill:#d6b2a4;}.cls-2{fill:#fff;}.cls-3{fill:#3c4368;}.cls-4{fill:#ffde91;}.cls-5{fill:#af93a2;}.cls-6{fill:#292e54;}.cls-7{fill:#e6e7e8;}.cls-8{fill:#bcbec0;}</style></defs><g id="shadow"><path class="cls-7" d="M62.88,405.15c-5.47,1.34-11.83,3.83-12.95,9.35-.89,4.38,2.26,8.77,6.24,10.8s8.61,2.24,13.08,2.41c83.28,3.15,167.85,6.17,248.76-13.78,7.04-1.74,15.85-6.51,13.94-13.51-1.41-5.18-7.81-6.84-13.13-7.54-43.17-5.64-86.91-6.9-130.34-3.79-21.45,1.53-42.41,4.9-63.53,8.25-20.61,3.27-41.41,2.74-62.06,7.81Z"></path><path class="cls-7" d="M315.21,305.25c.69,4.31,5.6,6.41,9.87,7.33,10.1,2.16,20.68,2.03,30.72-.39,5.69-1.37,11.18-3.46,16.85-4.9,10.69-2.71,21.97-3.07,32.82-1.03,10.01,1.88,19.7,5.78,29.88,6.21,10.18,.44,21.61-3.77,25.42-13.22,4.1-1.27,8.38-2.64,11.39-5.71,3.01-3.06,4.19-8.38,1.4-11.64-1.99-2.32-5.29-2.95-8.32-3.34-22.18-2.9-44.68-1.41-66.68,2.21-11.05,1.82-22,4.17-32.89,6.79-10.09,2.42-20.73,6.67-31.09,7.42-6.21,.45-20.97,.23-19.35,10.28Z"></path></g><g id="paperback"><path class="cls-5" d="M408.91,209.81c.55,1.5,1.1,2.99,1.66,4.49,.95-1.31,1.9-2.62,2.85-3.92,.42,1.18,.83,2.35,1.25,3.53,1.33-1.52,2.65-3.03,3.98-4.55,.56,1.73,1.53,3.32,2.8,4.62,1.3-1.17,2.61-2.34,3.91-3.51,.48,1.88,1.36,3.65,2.55,5.18,1.11-1.3,2.22-2.59,3.33-3.89,.21,1.61,.9,3.16,1.97,4.38l2.98-3.38c.51,1.22,1.03,2.44,1.54,3.66,1.3-1.28,2.6-2.57,3.9-3.85-1.06,1.19,.24,3.3,1.84,3.37,1.6,.08,2.96-1.21,3.7-2.62-.76,1.11-.09,2.79,1.12,3.36,1.22,.57,2.72,.18,3.77-.65s1.73-2.05,2.27-3.28l.73,3.53c1.15-1.15,2.31-2.3,3.46-3.45-1.05,25.85-.42,51.77,1.9,77.55-6.6-1.37-13.01,3.06-19.74,3.44-3.26,.19-6.49-.59-9.67-1.36-8-1.94-16-3.88-24.01-5.83-1.62-.39-3.41-.91-4.25-2.35-1.13-1.94,.05-4.36,.54-6.31,.38-1.49,.57-2.95,.61-4.48,.12-4.64,.55-9.25,.93-13.87,.87-10.6,1.74-21.2,2.61-31.8,.49-6,.98-11.99,1.47-17.99Z"></path><rect class="cls-2" x="409.41" y="253.78" width="69.84" height="1" transform="translate(174.59 689.4) rotate(-87.99)"></rect><path class="cls-6" d="M412.85,234.75c-.08,.68,3.53-.62,3.82-.85,.92-.73,1.69-2.07,.85-3.17-1.81-2.37-4.49,2.48-4.67,4.02Z"></path><path class="cls-6" d="M428.06,230.64c-.82-.48-2-.51-2.62,.21-.41,.46-.5,1.12-.49,1.73,.03,1.49,.59,2.96,1.57,4.09,.44,.51,.97,.95,1.6,1.19s1.37,.23,1.95-.1c.8-.46,1.17-1.45,1.11-2.37-.11-1.71-1.64-3.88-3.11-4.75Z"></path><path class="cls-6" d="M418.05,248.32c1.48-1.29,3.66-1.76,5.5-1.07,1.84,.68,3.21,2.54,3.22,4.5,0,1.14-.55,2.4-1.64,2.73-.89,.27-1.85-.14-2.77-.06-1.84,.16-5.62,4.12-6.9,.95-.79-1.96,1.19-5.82,2.59-7.05Z"></path></g><g id="bottle"><path class="cls-3" d="M378.67,212.35c-1.04,1.77-.99,3.95-.85,6,.35,5.34,1.04,10.93-1,15.88-1.15,2.78-3.09,5.15-4.51,7.81-3.58,6.74-3.51,14.76-3.35,22.39,.13,6.04,.25,12.09,.46,18.13,.1,2.94,.26,6.02,1.73,8.57,2.57,4.46,8.33,5.96,13.48,5.93,4.61-.03,9.77-1.32,12.1-5.29,1.34-2.29,1.5-5.06,1.62-7.71,.35-7.57,.69-15.14,.82-22.72,.14-8.3-.13-17.14-4.7-24.07-1.26-1.91-2.81-3.62-3.9-5.64-1.35-2.51-1.89-5.36-2.21-8.19-.32-2.83-.45-5.68-.36-8.53,.04-1.27,.08-2.66-.67-3.68-.86-1.17-2.89-.88-4.19-.94-1.81-.08-3.49,.41-4.47,2.08Z"></path><path class="cls-7" d="M374.67,264.05c-.22,.54-.32,1.21,.02,1.69,.4,.58,1.21,.65,1.91,.63,.85-.02,1.71-.1,2.49-.42,1.73-.71,2.77-3.4,.74-4.44-1.88-.96-4.47,.83-5.16,2.53Z"></path><path class="cls-7" d="M385.96,258.93c-1.01,.43-1.2,1.81-.97,2.88,.43,1.99,1.79,3.75,3.61,4.66,.58,.29,1.3,.49,1.87,.19,.45-.24,.71-.76,.76-1.27s-.09-1.02-.26-1.51c-.57-1.61-2.62-5.97-5.01-4.95Z"></path><path class="cls-7" d="M384.25,273.25c-1.24-.1-2.33,.82-3.07,1.82-.84,1.14-1.43,2.48-1.7,3.87-.14,.71-.17,1.52,.32,2.06,.5,.56,1.36,.59,2.11,.55,1.08-.06,2.15-.17,3.21-.33,.88-.14,1.83-.35,2.4-1.05,.46-.56,.56-1.35,.44-2.06-.32-1.88-1.48-4.68-3.7-4.85Z"></path></g><g id="box"><path class="cls-4" d="M414.1,270.94c-3.16-.27-6.35-.5-9.48,.01-3.13,.51-6.22,1.82-8.32,4.19-1.79,2.02-2.74,4.68-3.14,7.35-.39,2.67-.26,5.39-.12,8.09,.12,2.33,.3,4.79,1.65,6.69,1.87,2.62,5.37,3.37,8.54,3.92,6.99,1.21,13.98,2.42,20.98,3.63,2.31,.4,4.66,.8,7,.53,3.55-.41,6.72-2.34,9.94-3.88,2.24-1.07,4.7-2.09,6.04-4.18,1.01-1.58,1.21-3.53,1.32-5.41,.22-3.51,.24-7.03,.06-10.54-.15-2.97-.14-4.12-3.16-5.02-6.51-1.96-13.21-3.24-19.94-4.14-3.78-.51-7.58-.9-11.38-1.23Z"></path><path class="cls-2" d="M424.36,283.59c-.46,0-.92,0-1.38-.03-2.78-.11-5.57-.58-8.26-1.02-3.54-.59-7.21-1.19-10.82-.99l-.06-1c3.71-.21,7.44,.41,11.04,1,2.67,.44,5.42,.9,8.14,1.01,5.81,.23,11.58-1.07,16.71-3.78l.47,.88c-4.88,2.58-10.33,3.93-15.84,3.93Z"></path><path class="cls-2" d="M429.69,301.94c-.72-5.24-1.21-10.56-1.47-15.82l1-.05c.26,5.23,.75,10.53,1.46,15.74l-.99,.14Z"></path></g><g id="milk-paper"><path class="cls-1" d="M338.35,231.04c5.53,3.44,12.6,2.58,19.04,1.61-1.81,2.99-3.68,6.54-2.46,9.82,1,2.67,3.77,4.27,5.07,6.81,1.4,2.74,.84,6.03,.34,9.07-2.32,14.08-2.56,28.5-.72,42.65-6.82,3.74-14.36,6.16-22.08,7.07-1.17,.14-2.54,.16-3.29-.74-.49-.6-.55-1.43-.59-2.2-.28-5.9-.56-11.81-.84-17.71-.37-7.74-.73-15.48-.58-23.23,.08-3.94,.29-7.88,.7-11.8,.37-3.48,.57-7.05,1.12-10.49,.61-3.87,2.08-7.61,4.28-10.85Z"></path><rect class="cls-2" x="343.69" y="253.15" width="14.55" height="1" transform="translate(-22.67 34.76) rotate(-5.49)"></rect><path class="cls-6" d="M343.4,268.37c-.21,.27-.42,.6-.36,.94,.1,.55,.81,.72,1.36,.69,1.3-.08,5.58-2.12,4.15-4.03-1.22-1.63-4.43,1.48-5.15,2.4Z"></path><path class="cls-6" d="M353.65,265.32c-.2-.08-.42-.14-.63-.08-.27,.08-.45,.36-.48,.64s.06,.56,.18,.82c.45,.98,1.32,1.75,2.35,2.08,1.24,.39,1.1-.67,.67-1.39-.53-.9-1.09-1.67-2.1-2.07Z"></path><path class="cls-6" d="M351.82,274.4c1.32,.2,2.5,1.25,2.73,2.56,.11,.62-.12,1.41-.74,1.52-.85,.15-1.32-1.08-2.17-1.29-.58-.14-1.18,.27-1.49,.78-.4,.66-1.63,4.71-2.8,2.43-.82-1.59,0-3.86,1.24-4.97,.86-.77,2.06-1.21,3.22-1.03Z"></path><path class="cls-5" d="M338.5,231.14c-1.8,5.76-3.57,12.17-1.01,17.63,1.11,2.38,3.02,4.47,3.39,7.07,.26,1.84-.29,3.69-.79,5.48-3.99,14.23-5.24,29.22-3.67,43.91,.15,1.4-1.34,2.41-2.57,1.73-3.15-1.74-6.52-3.08-10-3.98-1.46-.38-2.42-1.76-2.26-3.26,1.61-15.34,2-30.81,1.15-46.22-.26-4.8,.41-9.04,5.64-10.4,1.43-.37,3.18-.48,4.41-1.38,1.43-1.05,1.55-2.82,1.95-4.42,.61-2.38,1.71-4.71,3.76-6.17Z"></path></g><g id="cart"><path class="cls-3" d="M124.68,173.13c-4.67-5.78-10.98-9.59-17.61-10.62-1.6-.25-3.27-.33-4.79,.31-1.52,.64-2.89,2.14-3.16,4.06-.33,2.33,1.01,4.61,2.69,5.85,1.67,1.23,3.64,1.7,5.52,2.39,7.44,2.76,13.75,9.66,16.76,18.32,.68,1.97,1.22,4.05,2.31,5.74,1.62,2.51,4.88,3.48,6.77,.74,1.52-2.21,.6-4.72-.01-7.17-1.83-7.27-4-14.06-8.48-19.61Z"></path><path class="cls-7" d="M300.91,268.5c.22,5.25,.4,10.77-1.54,15.47-1.92,4.66-5.65,7.81-9.35,10.48-24.73,17.86-54.14,23-82.68,27.78-36.82,6.17-73.64,12.34-110.46,18.51-3.04,.51-6.38,.94-8.94-1.1-2.71-2.16-3.63-6.37-4.34-10.19-6.43-34.51-12.86-69.01-19.29-103.52-.66-3.52-1.29-7.33-.05-10.61,1.02-2.69,2.78-5.57,5.19-6.11,20.44-4.57,34.51-13.13,64.17-20.3,27.16-6.56,151.16,12.35,160.3,14.66,5.19,1.31,4.26,2.17,4.62,9.32,.31,6.27,.53,12.56,.8,18.84,.52,12.26,1.04,24.52,1.56,36.77Z"></path><path class="cls-3" d="M285.37,207c1.5,.53,1.56,3.07,.09,3.71l-8.66,3.76c-8.13,3.53-16.3,7.07-24.79,9.07-12.65,2.98-25.66,2.45-38.53,1.83-43.5-2.07-86.98-4.92-130.4-8.57-1.68-.14-2.09-2.92-.56-3.75,24.64-13.27,47.09-21.25,74.05-20.15,14.4,.59,78.95,8.8,94.59,9.08,5.87,.11,25.6,2.43,29.48,3.38,1.05,.26,2.85,.98,4.73,1.64Z"></path><g><path class="cls-8" d="M242.9,231.07c.74,.02,1.34,.76,1.32,1.66l-1.21,71.98c-.02,.89-.62,1.59-1.35,1.59h-.03c-.74-.02-1.34-.76-1.32-1.66l1.21-71.98c.02-.9,.6-1.61,1.38-1.59Z"></path><path class="cls-8" d="M83.13,251.98c.39-.76,1.23-1,1.86-.52,5.46,4.12,10.84,8.43,16.13,12.88,3.1-4.63,5.91-9.55,8.38-14.71-3.96-2.81-7.96-5.55-11.98-8.21-.65-.43-.89-1.42-.53-2.21,.36-.79,1.18-1.08,1.83-.65,4.04,2.67,8.04,5.42,12.01,8.23,1.52-3.39,2.91-6.86,4.15-10.42,.29-.83,1.08-1.22,1.76-.87,.69,.35,1.01,1.3,.72,2.13-1.28,3.7-2.73,7.31-4.32,10.83,5.05,3.63,10.05,7.37,14.99,11.22,4.9-8.9,9.45-18.09,13.59-27.56,.35-.79,1.16-1.1,1.82-.68,.66,.42,.91,1.4,.56,2.2-4.19,9.56-8.78,18.83-13.72,27.81,6.61,5.23,13.11,10.66,19.5,16.29,5.27-9.08,9.97-18.66,14.01-28.65-4.03-3.23-8.13-6.36-12.29-9.34-.64-.46-.85-1.46-.47-2.23,.38-.77,1.21-1.03,1.85-.57,4.09,2.93,8.12,6,12.09,9.18,1.9-4.87,3.66-9.83,5.25-14.89,.26-.84,1.05-1.26,1.74-.94,.7,.32,1.05,1.26,.78,2.1-1.66,5.28-3.51,10.46-5.5,15.55,6.52,5.31,12.86,10.94,19,16.88,2.98-6.11,5.8-12.35,8.45-18.7-4.32-3.35-8.72-6.52-13.24-9.47-.66-.43-.9-1.41-.55-2.21,.36-.79,1.17-1.09,1.83-.66,4.48,2.93,8.87,6.08,13.16,9.4,1.02-2.5,2.02-5.01,2.99-7.54,.31-.82,1.11-1.17,1.79-.8s.97,1.34,.66,2.16c-1.02,2.67-2.08,5.31-3.16,7.94,5.21,4.15,10.27,8.58,15.15,13.28,3.03-5.68,6-11.41,8.87-17.18,.38-.77,1.21-1.02,1.85-.56,.64,.46,.84,1.46,.46,2.23-2.94,5.91-5.98,11.77-9.08,17.58,2.3,2.27,4.58,4.59,6.8,6.98,.56,.6,.6,1.63,.11,2.3-.27,.36-.64,.54-1.01,.54-.32,0-.64-.14-.9-.41-2.12-2.28-4.29-4.49-6.48-6.66-3.53,6.54-7.16,13.01-10.88,19.4,.37,.42,.76,.83,1.13,1.25,.54,.62,.56,1.65,.05,2.3-.27,.34-.62,.51-.98,.51-.33,0-.67-.15-.93-.45-.28-.32-.56-.62-.84-.94-6.13,10.42-12.48,20.64-19.06,30.58-.27,.4-.66,.61-1.05,.61-.29,0-.59-.12-.84-.36-.58-.56-.68-1.59-.21-2.29,.29-.44,.58-.9,.87-1.34-3.82-4.06-7.7-8.04-11.64-11.95-5.38,8.45-11.1,16.6-17.16,24.42-.26,.34-.62,.52-.98,.52-.33,0-.66-.15-.92-.44-.54-.61-.57-1.64-.06-2.3,6.02-7.77,11.7-15.87,17.04-24.27-5.59-5.49-11.28-10.82-17.08-15.99-3.72,6.2-7.72,12.15-11.97,17.84,3.32,3.59,6.6,7.23,9.81,10.95,.54,.62,.55,1.65,.04,2.3-.26,.33-.62,.5-.97,.5s-.67-.15-.93-.45c-3.19-3.71-6.46-7.32-9.76-10.9-5.71,7.42-11.84,14.39-18.4,20.8-.25,.24-.55,.36-.85,.36-.39,0-.78-.21-1.05-.6-.47-.7-.38-1.72,.2-2.29,6.44-6.3,12.47-13.14,18.08-20.43-5.61-6-11.36-11.81-17.26-17.41-2.58,3.95-5.25,7.81-7.99,11.61,4.56,4.88,8.79,10.2,12.63,15.94,.47,.7,.38,1.72-.2,2.29-.25,.24-.55,.36-.85,.36-.39,0-.78-.21-1.05-.61-3.74-5.59-7.85-10.78-12.3-15.53-2.54,3.46-5.12,6.88-7.79,10.21-.26,.33-.62,.5-.97,.5s-.68-.15-.94-.46c-.54-.62-.55-1.65-.03-2.3,2.63-3.29,5.18-6.66,7.68-10.07-2.32-2.36-4.71-4.61-7.19-6.73-.61-.52-.75-1.53-.32-2.27,.43-.73,1.27-.91,1.88-.39,2.55,2.18,5.02,4.5,7.4,6.93,2.71-3.76,5.35-7.58,7.91-11.49-4.5-4.21-9.08-8.29-13.72-12.26-3.48,4.93-7.28,9.53-11.38,13.71-.25,.26-.56,.38-.87,.38-.38,0-.76-.2-1.03-.58-.48-.69-.41-1.71,.16-2.29,3.93-4,7.57-8.39,10.91-13.1-5.19-4.37-10.47-8.59-15.83-12.63-.63-.48-.82-1.48-.43-2.24Zm128.82,9.01c-4.8-4.63-9.77-9-14.89-13.09-2.71,6.46-5.59,12.8-8.63,19.02,4.35,4.29,8.6,8.73,12.74,13.32,3.69-6.34,7.29-12.76,10.78-19.25Zm-28.98,48.79c5.71-8.76,11.26-17.73,16.62-26.86-4.08-4.54-8.27-8.93-12.57-13.18-4.84,9.67-10.09,19.04-15.73,28.06,3.94,3.92,7.84,7.91,11.67,11.98Zm-13.76-14.05c5.63-9.03,10.87-18.4,15.71-28.08-6.06-5.88-12.33-11.45-18.77-16.72-4.08,10.02-8.8,19.63-14.1,28.74,5.82,5.19,11.55,10.55,17.16,16.06Zm-32.7,2.28c4.19-5.62,8.14-11.48,11.81-17.6-6.37-5.61-12.85-11.03-19.45-16.25-3.12,5.55-6.38,10.98-9.78,16.28,5.95,5.65,11.75,11.51,17.41,17.57Zm-19.54-19.57c3.35-5.23,6.56-10.58,9.64-16.05-4.88-3.81-9.82-7.51-14.81-11.09-2.51,5.23-5.36,10.22-8.5,14.93,4.63,3.95,9.19,8.02,13.67,12.21Z"></path></g><path class="cls-3" d="M59.23,191.43c-8.55-6.87-19.98-8.2-29.46-3.42-2.62,1.32-5.48,4.08-4.8,7.4,.39,1.91,1.92,3.24,3.51,3.68,1.59,.44,3.25,.17,4.87-.09,4.13-.67,8.32-1.27,12.46-.64,4.14,.63,8.27,2.63,11.02,6.41,5.11,7.03,4.13,17.78,7.08,26.43,.72,2.1,1.71,4.14,3.23,5.48,4.79,4.21,7.93-1.58,8.11-6.89,.15-4.34-1.3-7.89-2.23-11.98-2.41-10.69-5.84-20-13.79-26.38Z"></path><path class="cls-8" d="M93.17,343.13c-4.46,4.7-8.03,11.02-8.74,18.12-.71,7.1,1.96,14.91,7.24,18.14,5.57,3.41,12.26,1.22,18.28-.79,41.98-13.97,86.77-15.42,129.31-4.18,7.79,2.06,15.67,4.62,22.26,10.03,3.66,3,7.07,8.9,4.5,13.24-2.43,4.1-7.65,2.67-11.57,.94-33.25-14.66-69.43-19.55-104.54-14.14-21.54,3.32-43,10.46-64.62,7.97-3.94-.45-7.94-1.26-11.44-3.48-3.5-2.22-6.48-6.07-7.23-10.77-1.13-7.12,2.92-13.79,6.72-19.4,5.45-8.04,11.14-16.19,18.31-22.08,1.93-1.58,7.36-6.91,9.3-2.87,1.63,3.39-5.85,7.23-7.78,9.27Z"></path><path class="cls-8" d="M232.58,382.82c3.77,2.19,6.49,6.55,7.84,11.34,1.79,6.31,1.3,13.69-1.88,19.15-3.18,5.46-9.16,8.56-14.51,6.87-4-1.27-7.26-4.96-9.32-9.29-2.09-4.38-3.08-9.65-2.18-14.58,1.77-9.64,12.25-18.02,20.04-13.48Z"></path><path class="cls-8" d="M113.3,381.3c3.49-.08,6.86,1.88,9.48,4.68,4.33,4.63,6.82,12.04,5.47,18.83s-6.98,12.28-12.73,11.44c-4.35-.64-7.95-4.48-10.51-8.77-6.19-10.35-4.37-25.9,8.29-26.18Z"></path><path class="cls-6" d="M136.14,254.66c-1.18,1.85-2.1,4.17-.66,5.77,1.24,1.37,3.86,1.61,5.93,.95,2.08-.66,3.7-2.02,5.1-3.42,2.99-2.99,10.68-11.14,3.75-13.09-6.25-1.76-11.98,6.43-14.13,9.78Z"></path><path class="cls-6" d="M177.52,244c-.64,1.63,.13,3.32,1.06,4.8,2.41,3.83,5.9,7.19,10.17,9.79,1.97,1.2,4.53,2.29,6.98,1.56,2.26-.68,3.54-2.76,3.42-4.63-.12-1.86-1.34-3.52-2.73-4.98-2.12-2.21-16.31-13.06-18.89-6.54Z"></path><path class="cls-6" d="M150.24,285.39c3.96-5.3,10.66-9.78,18.27-10.41,6.69-.55,13.14,1.97,17.58,5.72,4.44,3.75,7.12,8.62,9.13,13.56,1.21,2.97,1.72,7.03-1.82,8.71-2.07,.98-4.7,.6-6.68-.32-1.97-.92-3.52-2.3-5.31-3.42-10.32-6.43-18.28-1.26-28.09,2.42-13.95,5.23-6.85-11.21-3.08-16.26Z"></path><path class="cls-8" d="M258.02,290.06c-.17,0-.34-.04-.5-.14-.56-.34-.8-1.16-.52-1.84,7.45-18.3,11.97-38.73,13.07-59.08,.04-.76,.6-1.33,1.21-1.28,.63,.05,1.1,.7,1.06,1.46-1.12,20.71-5.72,41.5-13.3,60.12-.2,.49-.6,.77-1.02,.77Z"></path><path class="cls-8" d="M277.09,281.62c-.17,0-.34-.04-.5-.14-.56-.34-.8-1.16-.52-1.84,6.64-16.32,10.2-34.55,10.29-52.73,0-.76,.51-1.37,1.14-1.37h0c.63,0,1.14,.62,1.13,1.38-.09,18.59-3.72,37.24-10.52,53.93-.2,.49-.6,.77-1.02,.77Z"></path><path class="cls-8" d="M288.52,275.94s-.05,0-.07,0c-13.15-.95-26.07-8.79-34.55-20.96-.41-.58-.34-1.45,.14-1.94,.48-.49,1.2-.41,1.6,.17,8.09,11.6,20.41,19.07,32.94,19.98,.63,.04,1.11,.7,1.07,1.46-.04,.73-.54,1.29-1.14,1.29Z"></path><path class="cls-8" d="M296.15,254.79c-.1,0-.21-.02-.32-.06-7.75-2.71-14.84-7.83-20.5-14.78-.44-.54-.43-1.41,.02-1.94,.45-.53,1.17-.53,1.61,.02,5.38,6.62,12.13,11.49,19.5,14.07,.6,.21,.95,.97,.78,1.7-.14,.6-.6,.99-1.09,.99Z"></path></g><g id="path"><path class="cls-8" d="M155.16,208.77c-.06,0-.13-.01-.19-.04-1.24-.52-2.46-1.14-3.63-1.84-.24-.14-.31-.45-.17-.69,.14-.24,.45-.31,.69-.17,1.12,.68,2.3,1.28,3.5,1.78,.25,.11,.38,.4,.27,.65-.08,.19-.27,.31-.46,.31Z"></path><path class="cls-8" d="M145.44,201.95c-.13,0-.27-.05-.37-.16-1.84-1.97-3.42-4.19-4.68-6.57-.13-.24-.04-.55,.21-.68,.24-.13,.55-.04,.68,.21,1.22,2.31,2.74,4.45,4.53,6.35,.19,.2,.18,.52-.02,.71-.1,.09-.22,.13-.34,.13Zm-7.33-13.91c-.23,0-.44-.16-.49-.4-.29-1.38-.49-2.77-.57-4.15-.03-.53-.05-1.06-.05-1.59,0-.77,.03-1.55,.1-2.32,.02-.28,.28-.48,.54-.46,.28,.02,.48,.26,.46,.54-.06,.74-.09,1.5-.09,2.23,0,.51,.01,1.02,.04,1.53,.08,1.32,.26,2.67,.55,4,.06,.27-.11,.54-.38,.59-.04,0-.07,.01-.11,.01Zm1.26-15.65c-.06,0-.12-.01-.18-.03-.26-.1-.39-.39-.29-.64,.95-2.52,2.23-4.92,3.81-7.11,.16-.22,.47-.27,.7-.11,.22,.16,.28,.47,.11,.7-1.53,2.12-2.77,4.44-3.69,6.88-.08,.2-.27,.32-.47,.32Zm9.22-12.74c-.15,0-.29-.06-.39-.19-.17-.22-.14-.53,.08-.7,1.14-.91,2.36-1.72,3.61-2.43,1.04-.59,2.14-1.13,3.36-1.64,.25-.11,.55,.01,.66,.27,.11,.25-.01,.55-.26,.66-1.18,.5-2.25,1.02-3.26,1.59-1.2,.68-2.37,1.47-3.48,2.34-.09,.07-.2,.11-.31,.11Zm14.39-6.53c-.22,0-.42-.15-.48-.37-.07-.27,.08-.54,.35-.62,.98-.27,1.96-.53,2.95-.8,1.56-.42,3.17-.84,4.72-1.31,.27-.08,.54,.07,.62,.34s-.07,.54-.34,.62c-1.57,.47-3.19,.9-4.75,1.31-.98,.26-1.96,.52-2.94,.79-.04,.01-.09,.02-.13,.02Zm15.12-4.9c-.18,0-.36-.1-.45-.28-.12-.25-.02-.55,.23-.67,1.51-.74,2.84-1.55,4.07-2.46,.8-.6,1.58-1.26,2.31-1.97,.2-.19,.51-.19,.71,0,.19,.2,.19,.51,0,.71-.76,.74-1.57,1.43-2.41,2.05-1.28,.95-2.66,1.79-4.22,2.56-.07,.04-.15,.05-.22,.05Zm11.26-10.87c-.08,0-.16-.02-.24-.06-.24-.13-.33-.43-.2-.68,1.22-2.26,2.15-4.71,2.76-7.3,.06-.27,.33-.44,.6-.37,.27,.06,.43,.33,.37,.6-.63,2.67-1.59,5.21-2.85,7.55-.09,.17-.26,.26-.44,.26Zm3.68-15.31c-.28,0-.5-.22-.5-.5-.01-2.52-.29-5.15-.82-7.81-.05-.27,.12-.53,.39-.59,.27-.06,.53,.12,.59,.39,.55,2.72,.83,5.42,.84,8,0,.28-.22,.5-.5,.5h0Z"></path><path class="cls-8" d="M190,106.46c-.2,0-.39-.12-.47-.33-.44-1.2-.95-2.44-1.5-3.67-.11-.25,0-.55,.25-.66,.25-.11,.55,0,.66,.25,.56,1.26,1.07,2.51,1.52,3.73,.1,.26-.04,.55-.3,.64-.06,.02-.12,.03-.17,.03Z"></path></g><g id="fly"><path class="cls-7" d="M166.38,94.22c-3.55,.64-7.25-.5-9.42-2.9-1.3-1.43-1.97-3.75-.49-5.27,1.41-1.45,3.83-1.25,5.76-.81,2.21,.51,4.38,1.16,6.46,1.95,1.76,.67,4.01,1.37,5.55,.12,1.3-1.06,1.22-2.85,1.02-4.34-.29-2.15-.58-4.29-.87-6.44-.15-1.12-.3-2.26-.05-3.4,.25-1.14,.98-2.29,2.14-2.82,1.63-.75,3.52-.04,4.71,1.06,3.1,2.86,2.93,7.8,.99,11.77-.63,1.3-1.45,2.56-2.61,3.54-1.88,1.59-4.28,1.4-5.96,3.18-2.01,2.13-4.18,3.81-7.23,4.36Z"></path><path class="cls-6" d="M171.27,87.07c-.5,1.08-.53,2.28-.19,3.34,.58,1.8,2.41,3.25,4.51,3.06,1.15-.1,2.27-.68,3.09-1.48,.82-.8,1.37-1.81,1.66-2.85,.33-1.15,.36-2.36-.08-3.41s-1.4-1.91-2.61-2.15c-2.1-.41-5.53,1.67-6.38,3.5Z"></path></g></svg>