<svg xmlns="http://www.w3.org/2000/svg" version="1.1" xmlns:xlink="http://www.w3.org/1999/xlink" xmlns:svgjs="http://svgjs.dev/svgjs" width="128" height="128" viewBox="0 0 128 128"><g transform="matrix(0.8046875,0,0,0.8046875,12.68068225040642,3.0713679631666793)"><svg viewBox="0 0 105 106" data-background-color="#ffffff" preserveAspectRatio="xMidYMid meet" height="129" width="128" xmlns="http://www.w3.org/2000/svg" xmlns:xlink="http://www.w3.org/1999/xlink"><g id="tight-bounds" transform="matrix(1,0,0,1,-0.18419064361819437,9.692414078720446)"><svg viewBox="0 0 95.481 95.481" height="95.481" width="95.481"><g><svg viewBox="0 0 95.481 95.481" height="95.481" width="95.481"><g><svg viewBox="0 0 95.481 95.481" height="95.481" width="95.481"><g id="textblocktransform"><svg viewBox="0 0 95.481 95.481" height="95.481" width="95.481" id="textblock"><g><svg viewBox="0 0 95.481 95.481" height="95.481" width="95.481"><g><svg viewBox="0 0 95.481 95.481" height="95.481" width="95.481"><g><svg xmlns="http://www.w3.org/2000/svg" viewBox="3 3 26 26" x="0" y="0" height="95.481" width="95.481" class="icon-icon-0" data-fill-palette-color="accent" id="icon-0"><g fill="#4d7e3e" data-fill-palette-color="accent"><path d="M16 3A13 13 0 1 0 29 16 13 13 0 0 0 16 3M16 27A11 11 0 1 1 27 16 11 11 0 0 1 16 27" fill="#4d7e3e" data-fill-palette-color="accent"></path><path d="M11 12A1 1 0 0 1 12 13 1 1 0 0 0 14 13 3 3 0 0 0 8 13 1 1 0 0 0 10 13 1 1 0 0 1 11 12" fill="#4d7e3e" data-fill-palette-color="accent"></path><path d="M21 10A3 3 0 0 0 18 13 1 1 0 0 0 20 13 1 1 0 0 1 22 13 1 1 0 0 0 24 13 3 3 0 0 0 21 10" fill="#4d7e3e" data-fill-palette-color="accent"></path><path d="M19 17A3 3 0 0 0 16 20V21H11A1 1 0 0 0 11 23H21A1 1 0 0 0 22 22V20A3 3 0 0 0 19 17M18 21V20A1 1 0 0 1 20 20V21Z" fill="#4d7e3e" data-fill-palette-color="accent"></path></g></svg></g></svg></g></svg></g></svg></g></svg></g><g></g></svg></g><defs></defs></svg><rect width="95.481" height="95.481" fill="none" stroke="none" visibility="hidden"></rect></g></svg></g></svg>