<svg width="428" height="100" viewBox="0 0 428 100" fill="none" xmlns="http://www.w3.org/2000/svg">
<path d="M428.001 50.37C427.901 64.03 422.321 76.39 413.351 85.36C404.311 94.4 391.811 100 378.001 100H50.881C23.201 100 -0.178968 77.35 0.00103249 49.67C0.0910325 36 5.66103 23.63 14.641 14.65C23.691 5.6 36.191 0 50.001 0H134.621C149.221 0 162.571 8.34 168.871 21.51C176.921 38.34 194.121 50 214.001 50C233.881 50 251.081 38.34 259.131 21.51C265.431 8.34 278.781 0 293.381 0H377.111C404.821 0 428.201 22.67 428.001 50.37Z" fill="url(#paint0_linear_2_426)"/>
<defs>
<linearGradient id="paint0_linear_2_426" x1="214.001" y1="0" x2="214.001" y2="100" gradientUnits="userSpaceOnUse">
<stop stop-color="#2A2828"/>
<stop offset="1" stop-color="#181818"/>
</linearGradient>
</defs>
</svg>
